<?xml version="1.0" encoding="UTF-8"?>
<svg version="1.1" xmlns="http://www.w3.org/2000/svg" width="612" height="612">
<path d="M0 0 C201.96 0 403.92 0 612 0 C612 201.96 612 403.92 612 612 C410.04 612 208.08 612 0 612 C0 410.04 0 208.08 0 0 Z " fill="#FEFEFE" transform="translate(0,0)"/>
<path d="M0 0 C0.89332031 0.20496094 1.78664063 0.40992187 2.70703125 0.62109375 C20.87939134 5.47308376 37.07647724 14.81846835 52 26 C52.94617188 26.70640625 53.89234375 27.4128125 54.8671875 28.140625 C60.26230514 32.3058526 64.70664497 36.72314514 69 42 C69.70898438 42.82242188 70.41796875 43.64484375 71.1484375 44.4921875 C92.92624721 70.13500098 102.19842157 100.38929986 102.3125 133.5 C102.31545074 134.25434326 102.31840149 135.00868652 102.32144165 135.78588867 C102.33171214 147.32930272 101.43493061 157.93750289 98 169 C97.6596875 170.38445312 97.6596875 170.38445312 97.3125 171.796875 C95.69423814 178.14855279 92.7585425 183.84223043 89.74609375 189.625 C88.31494939 192.39123875 86.99341339 195.17439379 85.6875 198 C79.77989545 209.73823706 71.06136932 219.61750357 62 229 C61.33871094 229.70125 60.67742187 230.4025 59.99609375 231.125 C56.29988986 234.9617754 52.47844139 238.10218498 48 241 C47.34 241 46.68 241 46 241 C46 241.66 46 242.32 46 243 C20.39611268 258.44379585 -3.36236873 267.22457504 -33.5 267.25 C-34.21720215 267.25067474 -34.9344043 267.25134949 -35.67333984 267.25204468 C-46.08607868 267.23646285 -55.89694735 266.84722393 -66 264 C-66.63679687 263.83371094 -67.27359375 263.66742188 -67.9296875 263.49609375 C-77.96669278 260.85991532 -86.97818614 256.85696546 -96.11914062 251.98535156 C-98.10378615 250.94562813 -100.11132174 249.9626351 -102.125 248.98046875 C-105.42747535 247.33605105 -108.47362154 245.49533306 -111.5 243.375 C-112.3559375 242.78460938 -113.211875 242.19421875 -114.09375 241.5859375 C-114.7228125 241.06257812 -115.351875 240.53921875 -116 240 C-116 239.34 -116 238.68 -116 238 C-123.32466381 244.34112021 -130.41338055 250.88517538 -137.3659668 257.63134766 C-138.74817877 258.96159432 -140.14185575 260.28002883 -141.54663086 261.58642578 C-151.36665079 270.20663445 -151.36665079 270.20663445 -155.30078125 282.1484375 C-155.24188721 283.15825684 -155.18299316 284.16807617 -155.12231445 285.20849609 C-154.92792269 289.64497399 -156.57211637 293.34389289 -159 297 C-160.16150914 298.1820696 -161.32586898 299.36149532 -162.50563622 300.52534294 C-164.09661556 302.09534146 -165.67087622 303.68079128 -167.24287415 305.26979065 C-167.83559113 305.86828827 -168.42830811 306.46678589 -169.03898621 307.0834198 C-169.6723439 307.72306168 -170.3057016 308.36270355 -170.95825195 309.02172852 C-177.88603875 316.01493758 -184.82406167 322.99790056 -191.76791096 329.97515965 C-195.96284039 334.1909906 -200.15393885 338.41049116 -204.33666992 342.63842773 C-208.39256135 346.73785763 -212.45821694 350.82736782 -216.53075218 354.91026115 C-218.07675709 356.46363379 -219.61924817 358.02051209 -221.15807533 359.58099556 C-223.31395564 361.76602162 -225.48214509 363.93809651 -227.65356445 366.10766602 C-228.28084946 366.74933212 -228.90813446 367.39099823 -229.5544281 368.05210876 C-234.61036273 373.06179932 -239.61993203 376.55654067 -246.78125 377.49609375 C-256.20317334 377.34763908 -263.99187499 377.00812501 -271 370 C-275.55978741 363.69052672 -278.2871473 358.1567434 -278.375 350.25 C-278.40335937 349.10015625 -278.43171875 347.9503125 -278.4609375 346.765625 C-277.38857672 338.00498272 -272.95518887 332.21570177 -266.81982422 326.17285156 C-266.10378525 325.44805099 -265.38774628 324.72325043 -264.65000916 323.97648621 C-262.2972575 321.60186371 -259.92684942 319.24584553 -257.5546875 316.890625 C-255.90211131 315.23467684 -254.25027763 313.57798737 -252.59915161 311.92059326 C-249.14220274 308.4562893 -245.67641548 305.00114727 -242.20410156 301.55224609 C-237.76886868 297.14547612 -233.35643438 292.71666732 -228.95042229 288.2807045 C-225.54497957 284.85713377 -222.12764235 281.44563554 -218.70666885 278.03759003 C-217.07563044 276.40987151 -215.44825505 274.77847347 -213.82473373 273.14325714 C-211.54726977 270.85299762 -209.25421421 268.57953364 -206.95654297 266.30957031 C-206.29747452 265.64038071 -205.63840607 264.9711911 -204.95936584 264.28172302 C-198.53716967 258.00122234 -191.33940444 253.40988358 -182.125 253.5 C-178.92571745 253.63389375 -178.92571745 253.63389375 -176 253 C-173.99280906 250.83996609 -173.99280906 250.83996609 -172 248 C-170.85927191 246.9440993 -169.69032952 245.91834667 -168.50390625 244.9140625 C-163.30384921 240.4582493 -158.39255109 235.72188072 -153.51489258 230.91992188 C-152.45326509 229.88014804 -151.38540699 228.84670196 -150.31176758 227.81933594 C-148.74403829 226.31822269 -147.19665721 224.79858448 -145.65234375 223.2734375 C-144.73445068 222.38060059 -143.81655762 221.48776367 -142.87084961 220.56787109 C-140.72452922 218.1743129 -140.72452922 218.1743129 -141.08398438 215.36645508 C-142.39285965 211.98507768 -144.45186302 209.22654074 -146.5625 206.3125 C-150.4967294 200.65771041 -153.67371041 194.93515758 -156.4375 188.625 C-156.75468994 187.90094971 -157.07187988 187.17689941 -157.39868164 186.4309082 C-159.26367991 182.04088142 -160.84597765 177.60686212 -162.27368164 173.05615234 C-163.02389595 170.93235237 -163.99255438 169.01183452 -165 167 C-171.48463802 143.67909995 -170.65782988 113.81869404 -163 91 C-162.72124023 90.15630859 -162.44248047 89.31261719 -162.15527344 88.44335938 C-157.76980312 75.59291147 -151.44812579 64.30412006 -144 53 C-143.33484375 51.94554687 -142.6696875 50.89109375 -141.984375 49.8046875 C-139.88821079 46.84199871 -137.6161961 44.51170306 -135 42 C-134.01126898 40.96115982 -133.02714902 39.9179179 -132.046875 38.87109375 C-113.78882753 19.71392304 -91.42612136 7.06428138 -66 0 C-64.73027344 -0.35449219 -63.46054687 -0.70898438 -62.15234375 -1.07421875 C-42.85079372 -5.75274916 -19.22413973 -4.54696374 0 0 Z " fill="#FCFDFD" transform="translate(394,119)"/>
<path d="M0 0 C0.89332031 0.20496094 1.78664063 0.40992187 2.70703125 0.62109375 C20.87939134 5.47308376 37.07647724 14.81846835 52 26 C52.94617188 26.70640625 53.89234375 27.4128125 54.8671875 28.140625 C60.26230514 32.3058526 64.70664497 36.72314514 69 42 C69.70898438 42.82242188 70.41796875 43.64484375 71.1484375 44.4921875 C92.92624721 70.13500098 102.19842157 100.38929986 102.3125 133.5 C102.31545074 134.25434326 102.31840149 135.00868652 102.32144165 135.78588867 C102.33171214 147.32930272 101.43493061 157.93750289 98 169 C97.6596875 170.38445312 97.6596875 170.38445312 97.3125 171.796875 C95.69423814 178.14855279 92.7585425 183.84223043 89.74609375 189.625 C88.31494939 192.39123875 86.99341339 195.17439379 85.6875 198 C79.77989545 209.73823706 71.06136932 219.61750357 62 229 C61.33871094 229.70125 60.67742187 230.4025 59.99609375 231.125 C56.29988986 234.9617754 52.47844139 238.10218498 48 241 C47.34 241 46.68 241 46 241 C46 241.66 46 242.32 46 243 C20.39611268 258.44379585 -3.36236873 267.22457504 -33.5 267.25 C-34.21720215 267.25067474 -34.9344043 267.25134949 -35.67333984 267.25204468 C-46.08607868 267.23646285 -55.89694735 266.84722393 -66 264 C-66.63679687 263.83371094 -67.27359375 263.66742188 -67.9296875 263.49609375 C-77.96669278 260.85991532 -86.97818614 256.85696546 -96.11914062 251.98535156 C-98.10378615 250.94562813 -100.11132174 249.9626351 -102.125 248.98046875 C-105.42747535 247.33605105 -108.47362154 245.49533306 -111.5 243.375 C-112.3559375 242.78460938 -113.211875 242.19421875 -114.09375 241.5859375 C-114.7228125 241.06257812 -115.351875 240.53921875 -116 240 C-116 239.34 -116 238.68 -116 238 C-123.32466381 244.34112021 -130.41338055 250.88517538 -137.3659668 257.63134766 C-138.74817877 258.96159432 -140.14185575 260.28002883 -141.54663086 261.58642578 C-151.36665079 270.20663445 -151.36665079 270.20663445 -155.30078125 282.1484375 C-155.24188721 283.15825684 -155.18299316 284.16807617 -155.12231445 285.20849609 C-154.92792269 289.64497399 -156.57211637 293.34389289 -159 297 C-160.16150914 298.1820696 -161.32586898 299.36149532 -162.50563622 300.52534294 C-164.09661556 302.09534146 -165.67087622 303.68079128 -167.24287415 305.26979065 C-167.83559113 305.86828827 -168.42830811 306.46678589 -169.03898621 307.0834198 C-169.6723439 307.72306168 -170.3057016 308.36270355 -170.95825195 309.02172852 C-177.88603875 316.01493758 -184.82406167 322.99790056 -191.76791096 329.97515965 C-195.96284039 334.1909906 -200.15393885 338.41049116 -204.33666992 342.63842773 C-208.39256135 346.73785763 -212.45821694 350.82736782 -216.53075218 354.91026115 C-218.07675709 356.46363379 -219.61924817 358.02051209 -221.15807533 359.58099556 C-223.31395564 361.76602162 -225.48214509 363.93809651 -227.65356445 366.10766602 C-228.28084946 366.74933212 -228.90813446 367.39099823 -229.5544281 368.05210876 C-234.61036273 373.06179932 -239.61993203 376.55654067 -246.78125 377.49609375 C-256.20317334 377.34763908 -263.99187499 377.00812501 -271 370 C-275.55978741 363.69052672 -278.2871473 358.1567434 -278.375 350.25 C-278.40335937 349.10015625 -278.43171875 347.9503125 -278.4609375 346.765625 C-277.38857672 338.00498272 -272.95518887 332.21570177 -266.81982422 326.17285156 C-266.10378525 325.44805099 -265.38774628 324.72325043 -264.65000916 323.97648621 C-262.2972575 321.60186371 -259.92684942 319.24584553 -257.5546875 316.890625 C-255.90211131 315.23467684 -254.25027763 313.57798737 -252.59915161 311.92059326 C-249.14220274 308.4562893 -245.67641548 305.00114727 -242.20410156 301.55224609 C-237.76886868 297.14547612 -233.35643438 292.71666732 -228.95042229 288.2807045 C-225.54497957 284.85713377 -222.12764235 281.44563554 -218.70666885 278.03759003 C-217.07563044 276.40987151 -215.44825505 274.77847347 -213.82473373 273.14325714 C-211.54726977 270.85299762 -209.25421421 268.57953364 -206.95654297 266.30957031 C-206.29747452 265.64038071 -205.63840607 264.9711911 -204.95936584 264.28172302 C-198.53716967 258.00122234 -191.33940444 253.40988358 -182.125 253.5 C-178.92571745 253.63389375 -178.92571745 253.63389375 -176 253 C-173.99280906 250.83996609 -173.99280906 250.83996609 -172 248 C-170.85927191 246.9440993 -169.69032952 245.91834667 -168.50390625 244.9140625 C-163.30384921 240.4582493 -158.39255109 235.72188072 -153.51489258 230.91992188 C-152.45326509 229.88014804 -151.38540699 228.84670196 -150.31176758 227.81933594 C-148.74403829 226.31822269 -147.19665721 224.79858448 -145.65234375 223.2734375 C-144.73445068 222.38060059 -143.81655762 221.48776367 -142.87084961 220.56787109 C-140.72452922 218.1743129 -140.72452922 218.1743129 -141.08398438 215.36645508 C-142.39285965 211.98507768 -144.45186302 209.22654074 -146.5625 206.3125 C-150.4967294 200.65771041 -153.67371041 194.93515758 -156.4375 188.625 C-156.75468994 187.90094971 -157.07187988 187.17689941 -157.39868164 186.4309082 C-159.26367991 182.04088142 -160.84597765 177.60686212 -162.27368164 173.05615234 C-163.02389595 170.93235237 -163.99255438 169.01183452 -165 167 C-171.48463802 143.67909995 -170.65782988 113.81869404 -163 91 C-162.72124023 90.15630859 -162.44248047 89.31261719 -162.15527344 88.44335938 C-157.76980312 75.59291147 -151.44812579 64.30412006 -144 53 C-143.33484375 51.94554687 -142.6696875 50.89109375 -141.984375 49.8046875 C-139.88821079 46.84199871 -137.6161961 44.51170306 -135 42 C-134.01126898 40.96115982 -133.02714902 39.9179179 -132.046875 38.87109375 C-113.78882753 19.71392304 -91.42612136 7.06428138 -66 0 C-64.73027344 -0.35449219 -63.46054687 -0.70898438 -62.15234375 -1.07421875 C-42.85079372 -5.75274916 -19.22413973 -4.54696374 0 0 Z M-59 23 C-60.05405029 23.24145752 -60.05405029 23.24145752 -61.12939453 23.48779297 C-77.72830044 27.45916991 -91.79784366 35.27837304 -105 46 C-105.86367188 46.66902344 -106.72734375 47.33804688 -107.6171875 48.02734375 C-109.78574531 49.82262522 -111.55998442 51.60739624 -113.375 53.75 C-115.12806913 55.81354789 -116.87187089 57.86315463 -118.72265625 59.83984375 C-128.18186059 70.03165161 -134.84642243 82.71361609 -139.125 95.875 C-139.38434326 96.66583984 -139.64368652 97.45667969 -139.91088867 98.27148438 C-141.68746172 103.79229996 -143.21257132 109.24256692 -144 115 C-144.16435547 116.13501953 -144.16435547 116.13501953 -144.33203125 117.29296875 C-144.64645663 119.8628722 -144.84413414 122.41552657 -145 125 C-145.06574219 126.05316406 -145.13148438 127.10632813 -145.19921875 128.19140625 C-146.18420148 159.13345007 -133.59902817 188.3149943 -113 211 C-92.99351568 231.00648432 -65.24654366 243.27602762 -36.9375 243.4375 C-27.37657161 243.33317186 -18.30220557 242.13611367 -9 240 C-7.73929688 239.73316406 -6.47859375 239.46632813 -5.1796875 239.19140625 C20.12345292 233.24860187 45.97879132 215.62485805 60.3515625 193.8203125 C63.56630584 188.3202066 66.39735067 182.64795413 69.10839844 176.88525391 C69.87658279 175.26096049 70.67386535 173.65048658 71.4765625 172.04296875 C82.73741753 147.89776119 81.46055503 118.53030454 72.62133789 93.91064453 C67.90334632 81.5346745 61.63946783 70.09434703 53 60 C51.96166016 58.72769531 51.96166016 58.72769531 50.90234375 57.4296875 C39.97478264 44.62309668 26.33362496 35.69818302 11 29 C9.87722656 28.50757813 8.75445312 28.01515625 7.59765625 27.5078125 C-13.7222048 18.77313004 -36.73734445 17.88745858 -59 23 Z " fill="#3A4F61" transform="translate(394,119)"/>
<path d="M0 0 C3.88681147 7.77362294 2.09523143 19.47149613 2 28 C-2.48184122 28.10043342 -5.79213858 27.60299483 -10 26 C-10.26296875 26.72832031 -10.5259375 27.45664063 -10.796875 28.20703125 C-12.01491502 31.03462415 -13.43209297 33.21039695 -15.25 35.6875 C-18.38004664 40.03297185 -21.11715887 44.49631032 -23.73828125 49.1640625 C-24.15464844 49.76992187 -24.57101562 50.37578125 -25 51 C-25.66 51 -26.32 51 -27 51 C-27.26425781 51.72316406 -27.52851563 52.44632813 -27.80078125 53.19140625 C-31.5269055 61.91806206 -37.98735105 70.02950337 -46.8125 73.875 C-56.42195414 76.91435387 -65.71283617 74.12963008 -75.23046875 72.0234375 C-81.43546251 70.66381205 -87.66725586 69.55769242 -94 69 C-94.72759521 68.92136719 -95.45519043 68.84273438 -96.20483398 68.76171875 C-103.85811365 68.28610412 -109.26777198 70.99957537 -115.9375 74.5 C-117.96501266 75.53602969 -119.99485782 76.5675112 -122.02734375 77.59375 C-122.91156006 78.05458984 -123.79577637 78.51542969 -124.70678711 78.99023438 C-127 80 -127 80 -130 80 C-130 80.66 -130 81.32 -130 82 C-130.66 82 -131.32 82 -132 82 C-132 78.7 -132 75.4 -132 72 C-130.6490625 71.39671875 -129.298125 70.7934375 -127.90625 70.171875 C-126.10412618 69.36467371 -124.30204512 68.55737696 -122.5 67.75 C-121.613125 67.35425781 -120.72625 66.95851563 -119.8125 66.55078125 C-118.9359375 66.15761719 -118.059375 65.76445312 -117.15625 65.359375 C-116.27582031 64.96814453 -115.39539063 64.57691406 -114.48828125 64.17382812 C-112.04181395 63.06604461 -112.04181395 63.06604461 -109.98046875 61.81054688 C-100.57927096 56.29245252 -89.80137682 59.10460372 -79.75 61.4375 C-61.73403446 66.09901017 -61.73403446 66.09901017 -44 63 C-43.30137818 61.68312879 -42.64317588 60.3448223 -42 59 C-40.5634034 56.77356145 -39.10807594 54.56997553 -37.625 52.375 C-37.1930835 51.73054932 -36.76116699 51.08609863 -36.31616211 50.42211914 C-34.35109299 47.49039375 -32.37980221 44.56289829 -30.40576172 41.63720703 C-28.78850276 39.23920237 -27.17545746 36.83839929 -25.5625 34.4375 C-25.05477051 33.68839355 -24.54704102 32.93928711 -24.02392578 32.16748047 C-21.3762848 28.22307194 -19.01291507 24.3192381 -17 20 C-18.98 19.67 -20.96 19.34 -23 19 C-23.33 17.35 -23.66 15.7 -24 14 C-21.04338097 11.85179669 -18.08441906 9.70684386 -15.125 7.5625 C-14.28324219 6.95083984 -13.44148438 6.33917969 -12.57421875 5.70898438 C-11.76855469 5.12568359 -10.96289062 4.54238281 -10.1328125 3.94140625 C-9.38918457 3.40201416 -8.64555664 2.86262207 -7.87939453 2.30688477 C-4.78921028 0.15804659 -4.01774275 0 0 0 Z " fill="#168AC6" transform="translate(424,193)"/>
<path d="M0 0 C0.33 0 0.66 0 1 0 C1.23224053 10.665949 1.40965214 21.33129166 1.51812172 31.999259 C1.5701976 36.95362414 1.64076174 41.9062532 1.75439453 46.85961914 C1.86347809 51.64491745 1.92292834 56.42855214 1.94877243 61.21499825 C1.96717544 63.03598783 2.00311619 64.8568916 2.05730057 66.67716789 C2.46409662 80.91633215 2.46409662 80.91633215 -1.16973877 86.08792114 C-3.67316644 88.37503533 -6.12461038 90.21390314 -9 92 C-9.63231537 92.46474228 -10.26463074 92.92948456 -10.91610718 93.40830994 C-14.47267851 96 -14.47267851 96 -17 96 C-17.39943031 87.17582422 -17.69860798 78.35489405 -17.88080692 69.52355289 C-17.96840479 65.4192066 -18.08642202 61.32116992 -18.2824707 57.22045898 C-19.35612966 34.16943727 -17.06989947 19.56851873 -1.6572113 1.70677185 C-0.83689171 0.86191978 -0.83689171 0.86191978 0 0 Z " fill="#394E61" transform="translate(413,234)"/>
<path d="M0 0 C6.01213103 0.54655737 12.02375071 1.1462501 18 2 C18 25.1 18 48.2 18 72 C8 71 8 71 0 69 C0 46.23 0 23.46 0 0 Z " fill="#3C5063" transform="translate(328,269)"/>
<path d="M0 0 C0 21.12 0 42.24 0 64 C-8 66 -8 66 -18 66 C-18 44.55 -18 23.1 -18 1 C-4 0 -4 0 0 0 Z " fill="#394E60" transform="translate(380,274)"/>
<path d="M0 0 C0 18.15 0 36.3 0 55 C-7.70957581 51.91616968 -15.24688682 48.85901049 -19 41 C-20.82908216 30.16341956 -19.85311124 18.90107422 -19 8 C-16.21128823 6.66042079 -13.41856938 5.32941565 -10.625 4 C-9.8309375 3.6184375 -9.036875 3.236875 -8.21875 2.84375 C-7.45820313 2.4828125 -6.69765625 2.121875 -5.9140625 1.75 C-5.2123291 1.41484375 -4.5105957 1.0796875 -3.78759766 0.734375 C-2 0 -2 0 0 0 Z " fill="#405366" transform="translate(312,274)"/>
<path d="M0 0 C0 21.12 0 42.24 0 64 C-0.66 63.67 -1.32 63.34 -2 63 C-1.67 43.2 -1.34 23.4 -1 3 C-1.33 3.66 -1.66 4.32 -2 5 C-3.98 5 -5.96 5 -8 5 C-8 4.34 -8 3.68 -8 3 C-10.31 3 -12.62 3 -15 3 C-14.67 3.99 -14.34 4.98 -14 6 C-13.91134824 7.91718848 -13.88238243 9.83735913 -13.88647461 11.7565918 C-13.88658791 13.52808846 -13.88658791 13.52808846 -13.88670349 15.33537292 C-13.89186478 16.61044205 -13.89702606 17.88551117 -13.90234375 19.19921875 C-13.9037587 20.50454056 -13.90517365 21.80986237 -13.90663147 23.15473938 C-13.9104462 26.62189656 -13.92026756 30.08901174 -13.93133545 33.55615234 C-13.94157202 37.09537182 -13.9461339 40.6345981 -13.95117188 44.17382812 C-13.96189077 51.11590265 -13.97895466 58.05794931 -14 65 C-14.99 65 -15.98 65 -17 65 C-17.33 43.88 -17.66 22.76 -18 1 C-4 0 -4 0 0 0 Z " fill="#405367" transform="translate(380,274)"/>
<path d="M0 0 C2.41619631 3.62429446 2.24298934 5.27138362 2.22705078 9.58276367 C2.22734283 10.24644455 2.22763489 10.91012543 2.22793579 11.59391785 C2.22654357 13.78540161 2.21098779 15.97654445 2.1953125 18.16796875 C2.19158198 19.68825596 2.18873519 21.20854558 2.18673706 22.72883606 C2.17910366 26.72869514 2.15945774 30.72840879 2.1373291 34.72821045 C2.11686434 38.81032341 2.107734 42.89245989 2.09765625 46.97460938 C2.07621152 54.98313963 2.04207917 62.99155172 2 71 C0.515 71.495 0.515 71.495 -1 72 C-1.02312524 62.76002448 -1.04091601 53.52005886 -1.05181217 44.28006077 C-1.05704061 39.99000085 -1.06413753 35.69996067 -1.07543945 31.40991211 C-1.08626975 27.273206 -1.09227714 23.13651892 -1.09487724 18.99979973 C-1.09673124 17.41807696 -1.10035136 15.83635529 -1.10573006 14.25464058 C-1.1129424 12.04677162 -1.11399086 9.83898227 -1.11352539 7.63110352 C-1.115746 6.37201675 -1.11796661 5.11292999 -1.12025452 3.81568909 C-1 1 -1 1 0 0 Z " fill="#46576B" transform="translate(397,258)"/>
<path d="M0 0 C0.66 0 1.32 0 2 0 C2 1.65 2 3.3 2 5 C1.01 5 0.02 5 -1 5 C-1 5.66 -1 6.32 -1 7 C0.32 6.67 1.64 6.34 3 6 C3.33 6.66 3.66 7.32 4 8 C2.09858107 10.96839578 0.1763603 13.92274084 -1.75 16.875 C-2.28882813 17.71675781 -2.82765625 18.55851562 -3.3828125 19.42578125 C-3.91132813 20.23144531 -4.43984375 21.03710938 -4.984375 21.8671875 C-5.46616211 22.61081543 -5.94794922 23.35444336 -6.44433594 24.12060547 C-8.91008554 27.09947245 -12.18468411 28.50770118 -16 29 C-16.99 28.34 -17.98 27.68 -19 27 C-18.43732422 26.27296875 -18.43732422 26.27296875 -17.86328125 25.53125 C-14.64425863 21.31489796 -11.7298693 17.06510679 -9.078125 12.46875 C-8.72234375 11.9840625 -8.3665625 11.499375 -8 11 C-7.34 11 -6.68 11 -6 11 C-5.7525 10.29875 -5.505 9.5975 -5.25 8.875 C-3.82819762 5.60485452 -2.12753712 2.858878 0 0 Z " fill="#EEF5F6" transform="translate(405,233)"/>
<path d="M0 0 C0.66 0 1.32 0 2 0 C2 16.5 2 33 2 50 C1.01 50 0.02 50 -1 50 C-1 48.35 -1 46.7 -1 45 C-1.66 45 -2.32 45 -3 45 C-3 31.14 -3 17.28 -3 3 C-2.34 3 -1.68 3 -1 3 C-0.67 2.01 -0.34 1.02 0 0 Z " fill="#384B5D" transform="translate(309,275)"/>
<path d="M0 0 C8.61350411 -0.34778617 16.36232407 0.58429624 24.75 2.5 C25.84054687 2.73847656 26.93109375 2.97695312 28.0546875 3.22265625 C30.70579347 3.80403914 33.3538446 4.39655845 36 5 C34.68 5.33 33.36 5.66 32 6 C32 6.66 32 7.32 32 8 C33.65 8 35.3 8 37 8 C35.06745228 10.0245738 33.36841312 11.42105792 31 13 C28.60801782 12.77683215 26.35802701 12.4247312 24 12 C22.1690196 11.7411525 20.33687437 11.49046869 18.50390625 11.24609375 C17.53388672 11.11396484 16.56386719 10.98183594 15.56445312 10.84570312 C14.57380859 10.71099609 13.58316406 10.57628906 12.5625 10.4375 C11.54478516 10.29892578 10.52707031 10.16035156 9.47851562 10.01757812 C6.98570479 9.67818134 4.49286564 9.33899401 2 9 C2 8.67 2 8.34 2 8 C11.405 7.01 11.405 7.01 21 6 C18.525 5.505 18.525 5.505 16 5 C12.4 3.4 12.4 3.4 11 2 C9.15108054 1.76636119 7.29511969 1.58696365 5.4375 1.4375 C4.42558594 1.35371094 3.41367187 1.26992187 2.37109375 1.18359375 C1.19740234 1.09271484 1.19740234 1.09271484 0 1 C0 0.67 0 0.34 0 0 Z " fill="#2891C9" transform="translate(320,252)"/>
<path d="M0 0 C0.33 0 0.66 0 1 0 C1 25.74 1 51.48 1 78 C0.67 78 0.34 78 0 78 C-0.01030746 77.20264435 -0.02061493 76.4052887 -0.03123474 75.58377075 C-0.12910568 68.0790848 -0.23160513 60.57448326 -0.33933926 53.06993294 C-0.39456566 49.21152754 -0.44798519 45.35311456 -0.49731445 41.49462891 C-0.54496221 37.77281878 -0.59730514 34.05110191 -0.65294075 30.32940292 C-0.67336245 28.90762522 -0.69207585 27.48582194 -0.70907402 26.06399918 C-0.73312181 24.07662369 -0.76373998 22.08933095 -0.79467773 20.10205078 C-0.81799416 18.40328293 -0.81799416 18.40328293 -0.84178162 16.67019653 C-0.82267002 14.02672207 -0.82267002 14.02672207 -2 12 C-2.99 12.33 -3.98 12.66 -5 13 C-5.33 13.99 -5.66 14.98 -6 16 C-6 15.34 -6 14.68 -6 14 C-6.66 14 -7.32 14 -8 14 C-8.33 15.32 -8.66 16.64 -9 18 C-9.66 18 -10.32 18 -11 18 C-9.4797696 13.58883965 -7.10711129 9.97050368 -4.4375 6.1875 C-4.02564453 5.59001953 -3.61378906 4.99253906 -3.18945312 4.37695312 C-2.15591414 2.8968441 -1.08145584 1.44546837 0 0 Z " fill="#3E4F5E" transform="translate(413,234)"/>
<path d="M0 0 C0.66 0 1.32 0 2 0 C2 18.15 2 36.3 2 55 C-3.625 52.75 -3.625 52.75 -6 49 C-5.34 48.34 -4.68 47.68 -4 47 C-3.75393985 43.99113276 -3.62619218 41.06782248 -3.5859375 38.0546875 C-3.56657135 37.1696756 -3.5472052 36.2846637 -3.5272522 35.37283325 C-3.46737277 32.54032084 -3.42103787 29.70776797 -3.375 26.875 C-3.33682789 24.95701332 -3.29777662 23.03904393 -3.2578125 21.12109375 C-3.16166445 16.41420252 -3.07766458 11.70723104 -3 7 C-2.67 7 -2.34 7 -2 7 C-1.67 21.52 -1.34 36.04 -1 51 C-0.67 51 -0.34 51 0 51 C0 34.17 0 17.34 0 0 Z " fill="#617384" transform="translate(310,274)"/>
<path d="M0 0 C3.625 -0.1875 3.625 -0.1875 7 0 C7 0.66 7 1.32 7 2 C6.34 2 5.68 2 5 2 C4.67 23.78 4.34 45.56 4 68 C3.67 68 3.34 68 3 68 C3 46.88 3 25.76 3 4 C1.68 4.33 0.36 4.66 -1 5 C-2.41534778 5.06456879 -3.83337689 5.08611039 -5.25 5.0625 C-7.10625 5.0315625 -7.10625 5.0315625 -9 5 C-9 4.67 -9 4.34 -9 4 C-7.88625 3.896875 -6.7725 3.79375 -5.625 3.6875 C-4.42875 3.460625 -3.2325 3.23375 -2 3 C-1.34 2.01 -0.68 1.02 0 0 Z " fill="#E5EDEF" transform="translate(377,270)"/>
<path d="M0 0 C2.4389764 0.28199727 4.87570933 0.57515615 7.3125 0.875 C8.00279297 0.95363281 8.69308594 1.03226562 9.40429688 1.11328125 C12.95639471 1.55943847 14.9697029 1.97980193 18 4 C17.071875 3.938125 16.14375 3.87625 15.1875 3.8125 C12.00817221 3.63729883 12.00817221 3.63729883 10.5 5.5625 C10.005 6.036875 9.51 6.51125 9 7 C6.99279077 6.71325582 4.9914056 6.38133299 3 6 C2.34 6.66 1.68 7.32 1 8 C-1.8203125 7.7578125 -1.8203125 7.7578125 -5.125 7.125 C-6.22070312 6.92132813 -7.31640625 6.71765625 -8.4453125 6.5078125 C-9.28835938 6.34023438 -10.13140625 6.17265625 -11 6 C-11 5.67 -11 5.34 -11 5 C-7.7 5 -4.4 5 -1 5 C-0.67 3.35 -0.34 1.7 0 0 Z " fill="#EEF2F4" transform="translate(345,264)"/>
<path d="M0 0 C0.33 0 0.66 0 1 0 C1.1953125 2.05078125 1.390625 4.1015625 1.5859375 6.15234375 C1.72257813 6.76207031 1.85921875 7.37179688 2 8 C2.66 8.33 3.32 8.66 4 9 C5.10310721 14.18327484 5.01543531 19.0181668 4.625 24.25 C4.58117187 24.95640625 4.53734375 25.6628125 4.4921875 26.390625 C4.28327649 29.45465311 3.97553471 32.07339587 3 35 C2.67 35 2.34 35 2 35 C1.90912109 33.93458984 1.90912109 33.93458984 1.81640625 32.84765625 C1.73261719 31.92855469 1.64882812 31.00945312 1.5625 30.0625 C1.48128906 29.14597656 1.40007812 28.22945313 1.31640625 27.28515625 C1.23955024 25.03840268 1.23955024 25.03840268 0 24 C-0.08726223 22.21928754 -0.10699041 20.4351686 -0.09765625 18.65234375 C-0.09443359 17.57275391 -0.09121094 16.49316406 -0.08789062 15.38085938 C-0.07951172 14.24455078 -0.07113281 13.10824219 -0.0625 11.9375 C-0.05798828 10.79732422 -0.05347656 9.65714844 -0.04882812 8.48242188 C-0.03699747 5.65489649 -0.0205141 2.8274736 0 0 Z " fill="#3B4F63" transform="translate(226,232)"/>
<path d="M0 0 C0 2.64 0 5.28 0 8 C-1.4317616 8.69937202 -2.87067032 9.38412718 -4.3125 10.0625 C-5.11300781 10.44535156 -5.91351563 10.82820313 -6.73828125 11.22265625 C-9 12 -9 12 -12 11 C-11.29913295 5.65588873 -11.29913295 5.65588873 -10 3 C-6.94588606 1.01353182 -3.64428936 0 0 0 Z " fill="#F4F8F9" transform="translate(304,270)"/>
<path d="M0 0 C2.64 0.33 5.28 0.66 8 1 C7.814375 2.0725 7.62875 3.145 7.4375 4.25 C7.0695432 7.40391546 6.95534657 9.09818492 8 12 C8.33 10.68 8.66 9.36 9 8 C9.66 8 10.32 8 11 8 C11.125 15.625 11.125 15.625 10 19 C9.01 19 8.02 19 7 19 C7 21.97 7 24.94 7 28 C6.67 28 6.34 28 6 28 C5.34 19.09 4.68 10.18 4 1 C2.68 0.67 1.36 0.34 0 0 Z " fill="#F1F4FA" transform="translate(420,192)"/>
<path d="M0 0 C0 3 0 3 -1.3125 4.5 C-2.4375 5.5 -3.5625 6.5 -4.6875 7.5 C-6.3292523 9.04409629 -6.3292523 9.04409629 -6 12 C-6.5775 12.268125 -7.155 12.53625 -7.75 12.8125 C-10.07363365 14.0388622 -12.03824646 15.24843434 -14 17 C-14 17.99 -14 18.98 -14 20 C-16.91789766 22.10737053 -19.52302382 23.21247975 -23 24 C-18.32533663 18.37696243 -13.32234333 13.20258446 -8.125 8.0625 C-7.34125 7.28326172 -6.5575 6.50402344 -5.75 5.70117188 C-3.83561419 3.79845915 -1.91891966 1.89813829 0 0 Z " fill="#DCE4E9" transform="translate(227,423)"/>
<path d="M0 0 C-0.66 1.65 -1.32 3.3 -2 5 C-3.65 4.67 -5.3 4.34 -7 4 C-7 5.32 -7 6.64 -7 8 C-6.2575 7.649375 -5.515 7.29875 -4.75 6.9375 C-1.8677274 5.95490707 -0.78823655 5.9673198 2 7 C-4.625 10 -4.625 10 -8 10 C-8 10.66 -8 11.32 -8 12 C-8.66 12 -9.32 12 -10 12 C-10 8.7 -10 5.4 -10 2 C-3.375 -1.125 -3.375 -1.125 0 0 Z " fill="#2F94C6" transform="translate(302,263)"/>
<path d="M0 0 C0.66 0.33 1.32 0.66 2 1 C0.515 2.485 0.515 2.485 -1 4 C0.98 4.66 2.96 5.32 5 6 C5 6.66 5 7.32 5 8 C-1.435 10.97 -1.435 10.97 -8 14 C-8 13.34 -8 12.68 -8 12 C-5 10 -5 10 -2 10 C-2.33 8.35 -2.66 6.7 -3 5 C-3.7425 5.350625 -4.485 5.70125 -5.25 6.0625 C-8.21122875 7.0720098 -9.12062561 6.87980884 -12 6 C-10.04669132 4.96958487 -8.08718472 3.9509107 -6.125 2.9375 C-5.03445313 2.36902344 -3.94390625 1.80054688 -2.8203125 1.21484375 C-1.42425781 0.61349609 -1.42425781 0.61349609 0 0 Z " fill="#2089C0" transform="translate(313,255)"/>
<path d="M0 0 C0.33 0 0.66 0 1 0 C1.33 2.97 1.66 5.94 2 9 C2.66 9 3.32 9 4 9 C3.67 8.01 3.34 7.02 3 6 C4.65 5.34 6.3 4.68 8 4 C7.01 5.98 6.02 7.96 5 10 C4.34 10 3.68 10 3 10 C2.67 11.32 2.34 12.64 2 14 C1.34 14 0.68 14 0 14 C0 12.02 0 10.04 0 8 C-0.33 8.99 -0.66 9.98 -1 11 C-1.66 11 -2.32 11 -3 11 C-3 10.34 -3 9.68 -3 9 C-3.66 9 -4.32 9 -5 9 C-3.75471468 5.55151758 -2.38532951 2.80016942 0 0 Z " fill="#228DC2" transform="translate(394,234)"/>
<path d="M0 0 C0.8971875 0.5259375 0.8971875 0.5259375 1.8125 1.0625 C-2.01442458 3.96568417 -5.56582222 6.59708997 -10.1875 8.0625 C-12.5 7.6875 -12.5 7.6875 -14.1875 7.0625 C-13.8575 6.0725 -13.5275 5.0825 -13.1875 4.0625 C-12.1975 4.0625 -11.2075 4.0625 -10.1875 4.0625 C-10.1875 3.4025 -10.1875 2.7425 -10.1875 2.0625 C-8.5375 2.0625 -6.8875 2.0625 -5.1875 2.0625 C-5.1875 1.4025 -5.1875 0.7425 -5.1875 0.0625 C-2.1875 -0.9375 -2.1875 -0.9375 0 0 Z " fill="#FAFAFA" transform="translate(378.1875,266.9375)"/>
<path d="M0 0 C0.33 0 0.66 0 1 0 C1 1.65 1 3.3 1 5 C0.34 5 -0.32 5 -1 5 C-1.66 7.64 -2.32 10.28 -3 13 C-3.66 13 -4.32 13 -5 13 C-5.33 13.99 -5.66 14.98 -6 16 C-6 15.34 -6 14.68 -6 14 C-6.66 14 -7.32 14 -8 14 C-8.33 15.32 -8.66 16.64 -9 18 C-9.66 18 -10.32 18 -11 18 C-9.4797696 13.58883965 -7.10711129 9.97050368 -4.4375 6.1875 C-4.02564453 5.59001953 -3.61378906 4.99253906 -3.18945312 4.37695312 C-2.15591414 2.8968441 -1.08145584 1.44546837 0 0 Z " fill="#4E5F6D" transform="translate(413,234)"/>
<path d="M0 0 C0.66 0 1.32 0 2 0 C2 0.66 2 1.32 2 2 C1.34 2 0.68 2 0 2 C0.33 4.31 0.66 6.62 1 9 C0.34 9.45375 -0.32 9.9075 -1 10.375 C-1.66 10.91125 -2.32 11.4475 -3 12 C-3 12.66 -3 13.32 -3 14 C-3.66 14 -4.32 14 -5 14 C-5.33 11.03 -5.66 8.06 -6 5 C-4.68 5 -3.36 5 -2 5 C-1.34 3.35 -0.68 1.7 0 0 Z " fill="#1086C5" transform="translate(401,229)"/>
<path d="M0 0 C2.97 0 5.94 0 9 0 C7.03681826 3.53372712 4.95929119 6.24479785 2 9 C1.34 7.68 0.68 6.36 0 5 C0.66 5 1.32 5 2 5 C1.34 3.35 0.68 1.7 0 0 Z " fill="#EEF5F9" transform="translate(376,248)"/>
<path d="M0 0 C0.33 1.32 0.66 2.64 1 4 C1.66 4 2.32 4 3 4 C3 4.66 3 5.32 3 6 C3.66 6.33 4.32 6.66 5 7 C4.01 7.495 4.01 7.495 3 8 C0.3984375 7.00390625 0.3984375 7.00390625 -2.625 5.5625 C-3.62789063 5.08941406 -4.63078125 4.61632812 -5.6640625 4.12890625 C-6.43492187 3.75636719 -7.20578125 3.38382813 -8 3 C-6.23110084 -0.53779831 -3.70375662 0 0 0 Z " fill="#435768" transform="translate(411,145)"/>
<path d="M0 0 C-1.1875 1.5 -1.1875 1.5 -3 3 C-5.6875 3.1875 -5.6875 3.1875 -8 3 C-8 3.66 -8 4.32 -8 5 C-9.98 5 -11.96 5 -14 5 C-14.33 4.01 -14.66 3.02 -15 2 C-14.01 2 -13.02 2 -12 2 C-12 1.34 -12 0.68 -12 0 C-3.42857143 -1.28571429 -3.42857143 -1.28571429 0 0 Z " fill="#46596B" transform="translate(380,361)"/>
<path d="M0 0 C0.66 0.33 1.32 0.66 2 1 C1.01 1.66 0.02 2.32 -1 3 C-1 3.66 -1 4.32 -1 5 C-0.05125 4.79375 0.8975 4.5875 1.875 4.375 C3.421875 4.189375 3.421875 4.189375 5 4 C5.66 4.66 6.32 5.32 7 6 C5.5682384 6.69937202 4.12932968 7.38412718 2.6875 8.0625 C1.88699219 8.44535156 1.08648437 8.82820313 0.26171875 9.22265625 C-2 10 -2 10 -5 9 C-4.7452486 7.68428397 -4.47065859 6.37239624 -4.1875 5.0625 C-4.03667969 4.33160156 -3.88585937 3.60070312 -3.73046875 2.84765625 C-3.48941406 2.23792969 -3.24835938 1.62820313 -3 1 C-2.01 0.67 -1.02 0.34 0 0 Z " fill="#E6EFF4" transform="translate(297,272)"/>
<path d="M0 0 C0.33 0 0.66 0 1 0 C1 5.28 1 10.56 1 16 C-4.00147987 16 -5.81156072 15.97103025 -10 14 C-9.01 13.01 -8.02 12.02 -7 11 C-4.97954558 11.60183749 -2.97888961 12.27306096 -1 13 C-0.67 13.66 -0.34 14.32 0 15 C0 10.05 0 5.1 0 0 Z " fill="#3496C7" transform="translate(425,205)"/>
<path d="M0 0 C1.65 0.33 3.3 0.66 5 1 C4.37240135 3.92879371 3.41377341 6.36095629 2 9 C1.01 9 0.02 9 -1 9 C-1.33 7.02 -1.66 5.04 -2 3 C-1.34 3 -0.68 3 0 3 C0 2.01 0 1.02 0 0 Z " fill="#E7F5F7" transform="translate(402,212)"/>
<path d="M0 0 C5.28 0 10.56 0 16 0 C16 1.33333333 16 2.66666667 16 4 C14.02 4 12.04 4 10 4 C10 3.34 10 2.68 10 2 C6.7 2.33 3.4 2.66 0 3 C0 2.01 0 1.02 0 0 Z " fill="#3C5063" transform="translate(362,275)"/>
<path d="M0 0 C1.65 0.33 3.3 0.66 5 1 C4.07347299 2.17539996 3.13336613 3.34010577 2.1875 4.5 C1.66542969 5.1496875 1.14335937 5.799375 0.60546875 6.46875 C-1 8 -1 8 -4 8 C-3.67 6.35 -3.34 4.7 -3 3 C-2.34 3 -1.68 3 -1 3 C-0.67 2.01 -0.34 1.02 0 0 Z " fill="#4D5E6F" transform="translate(279,169)"/>
<path d="M0 0 C-0.94983358 1.50539661 -1.91011891 3.00420347 -2.875 4.5 C-3.40867187 5.3353125 -3.94234375 6.170625 -4.4921875 7.03125 C-4.98976563 7.6809375 -5.48734375 8.330625 -6 9 C-6.66 9 -7.32 9 -8 9 C-7.65357143 3.63035714 -7.65357143 3.63035714 -7 1 C-4.21424477 -1.32146269 -3.48083869 -1.16027956 0 0 Z " fill="#EFF6F8" transform="translate(401,225)"/>
<path d="M0 0 C2.97 0.495 2.97 0.495 6 1 C6.33 1.99 6.66 2.98 7 4 C2.25 8 2.25 8 0 8 C0 5.36 0 2.72 0 0 Z " fill="#EFF7FA" transform="translate(408,193)"/>
<path d="M0 0 C0.33 0 0.66 0 1 0 C1.1953125 2.05078125 1.390625 4.1015625 1.5859375 6.15234375 C1.72257813 6.76207031 1.85921875 7.37179688 2 8 C2.66 8.33 3.32 8.66 4 9 C4.40729228 11.32156597 4.74438677 13.6568787 5 16 C3.68 16.33 2.36 16.66 1 17 C-0.13480527 13.39006828 -0.10015767 10.0157673 -0.0625 6.25 C-0.05347656 5.07953125 -0.04445312 3.9090625 -0.03515625 2.703125 C-0.02355469 1.81109375 -0.01195312 0.9190625 0 0 Z " fill="#516174" transform="translate(226,232)"/>
<path d="M0 0 C0 0.66 0 1.32 0 2 C1.32 2.66 2.64 3.32 4 4 C-1.94 3.34 -7.88 2.68 -14 2 C-14 1.67 -14 1.34 -14 1 C-9.23692563 0.04738513 -4.8333472 -0.08333357 0 0 Z " fill="#3B9ACE" transform="translate(336,259)"/>
<path d="M0 0 C0.33 2.31 0.66 4.62 1 7 C0.67 5.68 0.34 4.36 0 3 C-0.99 3.66 -1.98 4.32 -3 5 C-5.33199388 5.07905064 -7.66832622 5.08798769 -10 5 C-5.16129032 0 -5.16129032 0 0 0 Z " fill="#3297C9" transform="translate(424,193)"/>
<path d="M0 0 C0 0.99 0 1.98 0 3 C-0.8971875 3.061875 -0.8971875 3.061875 -1.8125 3.125 C-4.35100832 3.87739901 -4.35100832 3.87739901 -5.75 7.0625 C-6.1625 8.031875 -6.575 9.00125 -7 10 C-7.99 9.67 -8.98 9.34 -10 9 C-9.34 9 -8.68 9 -8 9 C-8 8.34 -8 7.68 -8 7 C-9.32 7.33 -10.64 7.66 -12 8 C-8.79691333 4.23166274 -4.36419411 2.18209706 0 0 Z " fill="#546574" transform="translate(299,130)"/>
<path d="M0 0 C2 3 2 3 1.625 5.6875 C1.41875 6.450625 1.2125 7.21375 1 8 C-0.98 8.66 -2.96 9.32 -5 10 C-3.35 6.7 -1.7 3.4 0 0 Z " fill="#4E6071" transform="translate(460,301)"/>
<path d="M0 0 C3.68266103 0.59950296 7.34543185 1.24758891 11 2 C11 2.33 11 2.66 11 3 C6.71 3.66 2.42 4.32 -2 5 C-1.34 3.35 -0.68 1.7 0 0 Z " fill="#E1EEF6" transform="translate(414,219)"/>
<path d="M0 0 C0.66 0.33 1.32 0.66 2 1 C1.814375 1.5775 1.62875 2.155 1.4375 2.75 C0.95976454 5.20692525 1.24270636 6.64397534 2 9 C-0.97 8.505 -0.97 8.505 -4 8 C-3.67 7.01 -3.34 6.02 -3 5 C-3.99 4.67 -4.98 4.34 -6 4 C-4.02 2.68 -2.04 1.36 0 0 Z " fill="#4C606F" transform="translate(422,342)"/>
<path d="M0 0 C0.78375 0.04125 1.5675 0.0825 2.375 0.125 C1.92125 0.516875 1.4675 0.90875 1 1.3125 C-0.90142919 3.43332487 -1.68704028 5.45542235 -2.625 8.125 C-3.945 7.795 -5.265 7.465 -6.625 7.125 C-4.07142857 0.19387755 -4.07142857 0.19387755 0 0 Z " fill="#2391C6" transform="translate(401.625,226.875)"/>
<path d="M0 0 C6.93 0.495 6.93 0.495 14 1 C12.68 1.33 11.36 1.66 10 2 C10 2.66 10 3.32 10 4 C6.7 3.34 3.4 2.68 0 2 C0 1.34 0 0.68 0 0 Z " fill="#349ACF" transform="translate(358,258)"/>
<path d="M0 0 C2.20844555 1.74835273 2.93950114 2.60675742 3.375 5.4375 C2.93956032 8.41300448 1.97538528 9.77769156 0 12 C0 10.35 0 8.7 0 7 C-0.66 7 -1.32 7 -2 7 C-1.34 4.69 -0.68 2.38 0 0 Z " fill="#47596B" transform="translate(236,197)"/>
<path d="M0 0 C0.33 0.66 0.66 1.32 1 2 C3.64 1.67 6.28 1.34 9 1 C6.22719294 4.08089673 3.93673644 5.68775452 0 7 C0 6.01 0 5.02 0 4 C-0.99 3.34 -1.98 2.68 -3 2 C-2.01 2 -1.02 2 0 2 C0 1.34 0 0.68 0 0 Z " fill="#485B6A" transform="translate(152,488)"/>
<path d="M0 0 C2.0625 0.4375 2.0625 0.4375 4 1 C3.01 1.495 3.01 1.495 2 2 C2.33 3.32 2.66 4.64 3 6 C2.01 6.66 1.02 7.32 0 8 C-0.99 7.67 -1.98 7.34 -3 7 C-1.125 1.125 -1.125 1.125 0 0 Z " fill="#475A6C" transform="translate(244,182)"/>
<path d="M0 0 C0.33 0.99 0.66 1.98 1 3 C-0.4800841 2.88637738 -1.95910074 2.75877092 -3.4375 2.625 C-4.26121094 2.55539062 -5.08492188 2.48578125 -5.93359375 2.4140625 C-6.61550781 2.27742188 -7.29742187 2.14078125 -8 2 C-8.33 1.34 -8.66 0.68 -9 0 C-5.52176885 -1.15941038 -3.54104422 -0.70820884 0 0 Z " fill="#455664" transform="translate(333,380)"/>
<path d="M0 0 C-1.38782485 0.8466034 -2.78569397 1.67675339 -4.1875 2.5 C-4.96480469 2.9640625 -5.74210937 3.428125 -6.54296875 3.90625 C-9.24103386 5.10729647 -11.0806982 5.20741043 -14 5 C-5.5985874 -1.78575633 -5.5985874 -1.78575633 0 0 Z " fill="#D5EEF5" transform="translate(324,262)"/>
<path d="M0 0 C0.66 0.33 1.32 0.66 2 1 C0.19135947 4.19171858 -0.93488131 4.9751365 -4.4375 6.3125 C-7.75007003 6.9517679 -8.93777189 6.93549386 -12 6 C-10.04669132 4.96958487 -8.08718472 3.9509107 -6.125 2.9375 C-5.03445313 2.36902344 -3.94390625 1.80054688 -2.8203125 1.21484375 C-1.42425781 0.61349609 -1.42425781 0.61349609 0 0 Z " fill="#2F94C6" transform="translate(313,255)"/>
<path d="M0 0 C2.64 0.33 5.28 0.66 8 1 C7.34 4.96 6.68 8.92 6 13 C5.67 13 5.34 13 5 13 C4.67 9.04 4.34 5.08 4 1 C2.68 0.67 1.36 0.34 0 0 Z " fill="#E2F2FB" transform="translate(420,192)"/>
<path d="M0 0 C2.97 0.495 2.97 0.495 6 1 C4.37660195 2.70884005 2.70680947 4.37446717 1 6 C0.34 6 -0.32 6 -1 6 C-1.33 5.01 -1.66 4.02 -2 3 C-1.34 2.01 -0.68 1.02 0 0 Z " fill="#E4F3F5" transform="translate(402,200)"/>
<path d="M0 0 C4.29 0.33 8.58 0.66 13 1 C13.33 1.99 13.66 2.98 14 4 C9.03083364 3.48594831 4.70973649 2.76615118 0 1 C0 0.67 0 0.34 0 0 Z " fill="#F3F7F5" transform="translate(326,250)"/>
<path d="M0 0 C0.66 0 1.32 0 2 0 C2 1.98 2 3.96 2 6 C1.34 6 0.68 6 0 6 C0 8.31 0 10.62 0 13 C-0.99 13.495 -0.99 13.495 -2 14 C-1.85795259 12.41632253 -1.71119847 10.83306682 -1.5625 9.25 C-1.48128906 8.36828125 -1.40007812 7.4865625 -1.31640625 6.578125 C-1.03761535 4.30649548 -0.61209423 2.20148177 0 0 Z " fill="#556373" transform="translate(229,218)"/>
<path d="M0 0 C0.66 0 1.32 0 2 0 C3.125 5.75 3.125 5.75 2 8 C1.34 8 0.68 8 0 8 C-0.38063221 5.6739143 -0.71269945 3.33944736 -1 1 C-0.67 0.67 -0.34 0.34 0 0 Z " fill="#445667" transform="translate(252,212)"/>
<path d="M0 0 C0.99 0.99 1.98 1.98 3 3 C0.03 5.475 0.03 5.475 -3 8 C-3 4.04914614 -2.80023655 2.80023655 0 0 Z " fill="#445665" transform="translate(205,440)"/>
<path d="M0 0 C0.99 0.99 1.98 1.98 3 3 C0.03 5.475 0.03 5.475 -3 8 C-3 4.04914614 -2.80023655 2.80023655 0 0 Z " fill="#445665" transform="translate(229,416)"/>
<path d="M0 0 C0.66 0.33 1.32 0.66 2 1 C1.01 3.31 0.02 5.62 -1 8 C-1.66 8 -2.32 8 -3 8 C-3.33 6.02 -3.66 4.04 -4 2 C-2.125 0.9375 -2.125 0.9375 0 0 Z " fill="#435766" transform="translate(484,303)"/>
<path d="M0 0 C0.33 0 0.66 0 1 0 C1.05389087 1.95803507 1.09274217 3.91648909 1.125 5.875 C1.14820313 6.96554688 1.17140625 8.05609375 1.1953125 9.1796875 C1 12 1 12 -1 14 C-2.12029814 8.51053913 -1.79217969 5.16569441 0 0 Z " fill="#F7FDF2" transform="translate(428,192)"/>
<path d="M0 0 C2.97 0.33 5.94 0.66 9 1 C9 1.66 9 2.32 9 3 C9.99 3.33 10.98 3.66 12 4 C3.42857143 3 3.42857143 3 0 2 C0 1.34 0 0.68 0 0 Z " fill="#5A6874" transform="translate(378,139)"/>
<path d="M0 0 C-0.99 0.33 -1.98 0.66 -3 1 C-3.33 1.99 -3.66 2.98 -4 4 C-6.31 3.67 -8.62 3.34 -11 3 C-3.71428571 -1.85714286 -3.71428571 -1.85714286 0 0 Z " fill="#4C5E6D" transform="translate(323,122)"/>
<path d="M0 0 C2.97 0.495 2.97 0.495 6 1 C6 1.99 6 2.98 6 4 C5.01 4.495 5.01 4.495 4 5 C1.375 3.5625 1.375 3.5625 -1 2 C-0.67 1.34 -0.34 0.68 0 0 Z " fill="#516271" transform="translate(128,490)"/>
<path d="M0 0 C0.598125 0.350625 1.19625 0.70125 1.8125 1.0625 C-1.24867568 3.68636487 -1.91923127 4.0625 -6.1875 4.0625 C-5.875 2.125 -5.875 2.125 -5.1875 0.0625 C-2.1875 -0.9375 -2.1875 -0.9375 0 0 Z " fill="#EBF3F4" transform="translate(378.1875,266.9375)"/>
<path d="M0 0 C1.2065625 0.0309375 1.2065625 0.0309375 2.4375 0.0625 C2.4375 2.0625 2.4375 2.0625 1.0625 3.5 C0.52625 4.015625 -0.01 4.53125 -0.5625 5.0625 C-1.2225 6.0525 -1.8825 7.0425 -2.5625 8.0625 C-2.94313221 5.7364143 -3.27519945 3.40194736 -3.5625 1.0625 C-2.5625 0.0625 -2.5625 0.0625 0 0 Z " fill="#435766" transform="translate(469.5625,209.9375)"/>
<path d="M0 0 C1.65 0 3.3 0 5 0 C5 2.31 5 4.62 5 7 C4.34 7 3.68 7 3 7 C0 2.61538462 0 2.61538462 0 0 Z " fill="#455869" transform="translate(458,195)"/>
<path d="M0 0 C-3.28804981 2.91227269 -5.59885603 4.49701212 -10 5 C-7.22392109 0.83588163 -5.08838935 -1.69612978 0 0 Z " fill="#EBF1F4" transform="translate(214,442)"/>
<path d="M0 0 C0.33 0.66 0.66 1.32 1 2 C1.66 2.33 2.32 2.66 3 3 C2.01 5.31 1.02 7.62 0 10 C-0.33 10 -0.66 10 -1 10 C-1.125 2.25 -1.125 2.25 0 0 Z " fill="#465667" transform="translate(235,406)"/>
<path d="M0 0 C0 3 0 3 -2.25 5.75 C-3.1575 6.4925 -4.065 7.235 -5 8 C-6.32 7.67 -7.64 7.34 -9 7 C-6.03 4.69 -3.06 2.38 0 0 Z " fill="#DDE4E8" transform="translate(410,320)"/>
<path d="M0 0 C1.98 0 3.96 0 6 0 C6 1.65 6 3.3 6 5 C4.35 4.67 2.7 4.34 1 4 C0.67 2.68 0.34 1.36 0 0 Z " fill="#46586A" transform="translate(306,372)"/>
<path d="M0 0 C5.94 0.99 5.94 0.99 12 2 C8.32636934 2.91840767 4.74787912 3.49547781 1 4 C0.67 2.68 0.34 1.36 0 0 Z " fill="#D8EEF7" transform="translate(351,265)"/>
<path d="M0 0 C0.33 0 0.66 0 1 0 C1 2.64 1 5.28 1 8 C0.34 8 -0.32 8 -1 8 C-1 7.34 -1 6.68 -1 6 C-1.66 6 -2.32 6 -3 6 C-1.125 1.125 -1.125 1.125 0 0 Z " fill="#2D92C7" transform="translate(392,237)"/>
<path d="M0 0 C0.94875 0.04125 1.8975 0.0825 2.875 0.125 C1.125 4 1.125 4 -1.125 5.125 C-1.455 4.465 -1.785 3.805 -2.125 3.125 C-2.785 3.785 -3.445 4.445 -4.125 5.125 C-4.455 4.135 -4.785 3.145 -5.125 2.125 C-3.125 0.125 -3.125 0.125 0 0 Z " fill="#44556A" transform="translate(269.125,153.875)"/>
<path d="M0 0 C-1.13304992 3.39914975 -2.12518475 4.05254451 -5 6 C-5.99 5.01 -6.98 4.02 -8 3 C-2.25 0 -2.25 0 0 0 Z " fill="#E3E7E9" transform="translate(312,151)"/>
<path d="M0 0 C2.64 0 5.28 0 8 0 C8 0.66 8 1.32 8 2 C5.36 2.33 2.72 2.66 0 3 C0 2.01 0 1.02 0 0 Z " fill="#445569" transform="translate(368,116)"/>
<path d="M0 0 C2.475 0.99 2.475 0.99 5 2 C3.35 3.65 1.7 5.3 0 7 C0 4.66666667 0 2.33333333 0 0 Z " fill="#465867" transform="translate(170,473)"/>
<path d="M0 0 C0.144375 0.598125 0.28875 1.19625 0.4375 1.8125 C0.8872439 3.56150404 1.42892341 5.28677023 2 7 C-0.97 6.505 -0.97 6.505 -4 6 C-2.68 4.02 -1.36 2.04 0 0 Z " fill="#4F606E" transform="translate(222,367)"/>
<path d="M0 0 C-2.68841859 2.25245881 -4.64641875 3.88213958 -8 5 C-8 3.68 -8 2.36 -8 1 C-5.07175348 0.02391783 -3.04386724 -0.08226668 0 0 Z " fill="#465969" transform="translate(440,361)"/>
<path d="M0 0 C0.66 0 1.32 0 2 0 C2.66 1.98 3.32 3.96 4 6 C2.68 6.33 1.36 6.66 0 7 C-0.93423645 3.98968256 -1.04449911 3.13349732 0 0 Z " fill="#46566C" transform="translate(475,313)"/>
<path d="M0 0 C0.99 0.495 0.99 0.495 2 1 C2 1.99 2 2.98 2 4 C2.99 4.33 3.98 4.66 5 5 C5 6.98 5 8.96 5 11 C2.77174356 8.77174356 2.30760631 7.34238372 1.375 4.375 C1.11460937 3.55773437 0.85421875 2.74046875 0.5859375 1.8984375 C0.39257812 1.27195312 0.19921875 0.64546875 0 0 Z " fill="#5A6A7A" transform="translate(232,293)"/>
<path d="M0 0 C0.85851562 0.55300781 0.85851562 0.55300781 1.734375 1.1171875 C-0.905625 1.4471875 -3.545625 1.7771875 -6.265625 2.1171875 C-6.595625 3.1071875 -6.925625 4.0971875 -7.265625 5.1171875 C-8.255625 4.4571875 -9.245625 3.7971875 -10.265625 3.1171875 C-9.02678181 2.38951747 -7.77394159 1.68563935 -6.515625 0.9921875 C-5.81953125 0.59773437 -5.1234375 0.20328125 -4.40625 -0.203125 C-2.265625 -0.8828125 -2.265625 -0.8828125 0 0 Z " fill="#248EC0" transform="translate(418.265625,197.8828125)"/>
<path d="M0 0 C0.33 0.99 0.66 1.98 1 3 C1.66 3.33 2.32 3.66 3 4 C2.34 5.32 1.68 6.64 1 8 C0.34 8 -0.32 8 -1 8 C-1.93065133 5.39417629 -2.14917407 4.35801776 -1.0625 1.75 C-0.711875 1.1725 -0.36125 0.595 0 0 Z " fill="#F3F4F6" transform="translate(236,189)"/>
<path d="M0 0 C2 1 2 1 3 3 C-2.41538462 5.21538462 -2.41538462 5.21538462 -5.375 4.125 C-5.91125 3.75375 -6.4475 3.3825 -7 3 C-5.5459375 2.5359375 -5.5459375 2.5359375 -4.0625 2.0625 C-1.15934208 1.30476658 -1.15934208 1.30476658 0 0 Z " fill="#425569" transform="translate(411,373)"/>
<path d="M0 0 C0.66 0.33 1.32 0.66 2 1 C2 1.66 2 2.32 2 3 C0.35 2.67 -1.3 2.34 -3 2 C-2.01 1.34 -1.02 0.68 0 0 Z M-3 3 C-2.34 3 -1.68 3 -1 3 C-1 3.66 -1 4.32 -1 5 C-0.34 5.33 0.32 5.66 1 6 C-1.97 5.505 -1.97 5.505 -5 5 C-4.34 4.34 -3.68 3.68 -3 3 Z " fill="#32495B" transform="translate(405,353)"/>
<path d="M0 0 C0.66 0.33 1.32 0.66 2 1 C0.375 3.0625 0.375 3.0625 -2 5 C-5.25 4.75 -5.25 4.75 -8 4 C-6.66666667 3.33333333 -5.33333333 2.66666667 -4 2 C-3.29875 1.608125 -2.5975 1.21625 -1.875 0.8125 C-1.25625 0.544375 -0.6375 0.27625 0 0 Z " fill="#556776" transform="translate(404,352)"/>
<path d="M0 0 C1.5 1.375 1.5 1.375 3 3 C3 3.66 3 4.32 3 5 C2.01 5 1.02 5 0 5 C-0.33 5.66 -0.66 6.32 -1 7 C-1.625 5.1875 -1.625 5.1875 -2 3 C-1.34 2.01 -0.68 1.02 0 0 Z " fill="#495B6C" transform="translate(267,312)"/>
<path d="M0 0 C3.3 0 6.6 0 10 0 C6.39338934 1.80330533 3.91606575 2.46599103 0 3 C0 2.01 0 1.02 0 0 Z " fill="#4A5B6A" transform="translate(362,275)"/>
<path d="M0 0 C0.99 0.33 1.98 0.66 3 1 C3.33 1.99 3.66 2.98 4 4 C2.68 4.99 1.36 5.98 0 7 C0 4.66666667 0 2.33333333 0 0 Z " fill="#475767" transform="translate(162,481)"/>
<path d="M0 0 C1.125 3.75 1.125 3.75 0 6 C-0.99 5.67 -1.98 5.34 -3 5 C-3.33 4.01 -3.66 3.02 -4 2 C-2.68 1.34 -1.36 0.68 0 0 Z " fill="#4B5D71" transform="translate(126,484)"/>
<path d="M0 0 C0.99 0.33 1.98 0.66 3 1 C3.33 1.99 3.66 2.98 4 4 C2.68 4.99 1.36 5.98 0 7 C0 4.66666667 0 2.33333333 0 0 Z " fill="#445765" transform="translate(186,457)"/>
<path d="M0 0 C0.99 0.33 1.98 0.66 3 1 C3.33 1.99 3.66 2.98 4 4 C2.68 4.99 1.36 5.98 0 7 C0 4.66666667 0 2.33333333 0 0 Z " fill="#445765" transform="translate(218,425)"/>
<path d="M0 0 C-0.66 1.32 -1.32 2.64 -2 4 C-2.99 4 -3.98 4 -5 4 C-5 3.34 -5 2.68 -5 2 C-5.66 1.67 -6.32 1.34 -7 1 C-4.50935112 0.31292445 -2.62113708 0 0 0 Z " fill="#506172" transform="translate(396,356)"/>
<path d="M0 0 C0.33 0.99 0.66 1.98 1 3 C1.66 3.33 2.32 3.66 3 4 C2.01 4.66 1.02 5.32 0 6 C-0.33 6.99 -0.66 7.98 -1 9 C-1.66 9 -2.32 9 -3 9 C-2.01 6.03 -1.02 3.06 0 0 Z " fill="#5C6D7B" transform="translate(464,292)"/>
<path d="M0 0 C0.66 0 1.32 0 2 0 C3.4606285 2.64738916 4 3.89448334 4 7 C2.68 6.67 1.36 6.34 0 6 C0 4.02 0 2.04 0 0 Z " fill="#4C5F6D" transform="translate(482,193)"/>
<path d="M0 0 C1.32 1.65 2.64 3.3 4 5 C3 7 3 7 1 8 C-1.125 3.375 -1.125 3.375 0 0 Z " fill="#536372" transform="translate(475,178)"/>
</svg>
