<?xml version="1.0" encoding="UTF-8"?>
<svg version="1.1" xmlns="http://www.w3.org/2000/svg" width="260" height="280">
<path d="M0 0 C85.8 0 171.6 0 260 0 C260 92.4 260 184.8 260 280 C174.2 280 88.4 280 0 280 C0 187.6 0 95.2 0 0 Z " fill="#EAEAEA" transform="translate(0,0)"/>
<path d="M0 0 C1.4883163 0.00574353 2.97660671 0.01875734 4.46484375 0.03515625 C7.08421875 0.05578125 9.70359375 0.07640625 12.40234375 0.09765625 C12.07234375 5.37765625 11.74234375 10.65765625 11.40234375 16.09765625 C6.45234375 16.09765625 1.50234375 16.09765625 -3.59765625 16.09765625 C-3.59765625 21.37765625 -3.59765625 26.65765625 -3.59765625 32.09765625 C1.68234375 32.09765625 6.96234375 32.09765625 12.40234375 32.09765625 C12.40234375 37.37765625 12.40234375 42.65765625 12.40234375 48.09765625 C17.68234375 48.09765625 22.96234375 48.09765625 28.40234375 48.09765625 C28.40234375 42.81765625 28.40234375 37.53765625 28.40234375 32.09765625 C33.68234375 32.09765625 38.96234375 32.09765625 44.40234375 32.09765625 C44.40234375 103.04765625 44.40234375 173.99765625 44.40234375 247.09765625 C-41.39765625 247.09765625 -127.19765625 247.09765625 -215.59765625 247.09765625 C-215.59765625 202.87765625 -215.59765625 158.65765625 -215.59765625 113.09765625 C-210.31765625 113.09765625 -205.03765625 113.09765625 -199.59765625 113.09765625 C-199.59765625 107.81765625 -199.59765625 102.53765625 -199.59765625 97.09765625 C-194.31765625 97.09765625 -189.03765625 97.09765625 -183.59765625 97.09765625 C-183.10265625 104.52265625 -183.10265625 104.52265625 -182.59765625 112.09765625 C-177.64765625 112.09765625 -172.69765625 112.09765625 -167.59765625 112.09765625 C-167.26765625 107.14765625 -166.93765625 102.19765625 -166.59765625 97.09765625 C-161.31765625 97.09765625 -156.03765625 97.09765625 -150.59765625 97.09765625 C-150.59765625 102.37765625 -150.59765625 107.65765625 -150.59765625 113.09765625 C-145.31765625 113.09765625 -140.03765625 113.09765625 -134.59765625 113.09765625 C-134.59765625 112.43765625 -134.59765625 111.77765625 -134.59765625 111.09765625 C-132.61765625 111.59265625 -132.61765625 111.59265625 -130.59765625 112.09765625 C-130.92765625 112.75765625 -131.25765625 113.41765625 -131.59765625 114.09765625 C-132.25765625 113.76765625 -132.91765625 113.43765625 -133.59765625 113.09765625 C-133.59765625 118.37765625 -133.59765625 123.65765625 -133.59765625 129.09765625 C-132.60765625 129.42765625 -131.61765625 129.75765625 -130.59765625 130.09765625 C-137.19765625 130.09765625 -143.79765625 130.09765625 -150.59765625 130.09765625 C-150.59765625 135.37765625 -150.59765625 140.65765625 -150.59765625 146.09765625 C-145.31765625 146.09765625 -140.03765625 146.09765625 -134.59765625 146.09765625 C-134.59765625 151.37765625 -134.59765625 156.65765625 -134.59765625 162.09765625 C-129.31765625 162.09765625 -124.03765625 162.09765625 -118.59765625 162.09765625 C-118.59765625 167.37765625 -118.59765625 172.65765625 -118.59765625 178.09765625 C-123.87765625 178.09765625 -129.15765625 178.09765625 -134.59765625 178.09765625 C-134.59765625 183.37765625 -134.59765625 188.65765625 -134.59765625 194.09765625 C-139.87765625 194.09765625 -145.15765625 194.09765625 -150.59765625 194.09765625 C-150.59765625 189.14765625 -150.59765625 184.19765625 -150.59765625 179.09765625 C-155.87765625 179.09765625 -161.15765625 179.09765625 -166.59765625 179.09765625 C-166.57703125 181.38703125 -166.55640625 183.67640625 -166.53515625 186.03515625 C-166.51394757 188.38931957 -166.52493884 190.7445207 -166.59765625 193.09765625 C-168.53856451 195.03856451 -172.07059527 194.4968506 -174.66015625 194.66015625 C-178.09421875 194.87671875 -178.09421875 194.87671875 -181.59765625 195.09765625 C-181.92765625 200.37765625 -182.25765625 205.65765625 -182.59765625 211.09765625 C-177.31765625 211.09765625 -172.03765625 211.09765625 -166.59765625 211.09765625 C-166.59765625 216.37765625 -166.59765625 221.65765625 -166.59765625 227.09765625 C-161.31765625 227.09765625 -156.03765625 227.09765625 -150.59765625 227.09765625 C-150.59765625 221.81765625 -150.59765625 216.53765625 -150.59765625 211.09765625 C-145.31765625 211.09765625 -140.03765625 211.09765625 -134.59765625 211.09765625 C-134.59765625 216.37765625 -134.59765625 221.65765625 -134.59765625 227.09765625 C-128.98765625 227.09765625 -123.37765625 227.09765625 -117.59765625 227.09765625 C-117.59765625 221.81765625 -117.59765625 216.53765625 -117.59765625 211.09765625 C-112.31765625 211.09765625 -107.03765625 211.09765625 -101.59765625 211.09765625 C-101.59765625 216.37765625 -101.59765625 221.65765625 -101.59765625 227.09765625 C-96.31765625 227.09765625 -91.03765625 227.09765625 -85.59765625 227.09765625 C-85.59765625 221.81765625 -85.59765625 216.53765625 -85.59765625 211.09765625 C-80.31765625 211.09765625 -75.03765625 211.09765625 -69.59765625 211.09765625 C-69.59765625 205.81765625 -69.59765625 200.53765625 -69.59765625 195.09765625 C-74.48919096 195.13722415 -74.48919096 195.13722415 -79.38061523 195.18774414 C-81.11987342 195.19490538 -82.85910929 195.14790327 -84.59765625 195.09765625 C-85.59765625 194.09765625 -85.59765625 194.09765625 -85.6953125 190.71875 C-85.68957049 189.32418133 -85.67655853 187.92964028 -85.66015625 186.53515625 C-85.63953125 184.08078125 -85.61890625 181.62640625 -85.59765625 179.09765625 C-80.31765625 179.09765625 -75.03765625 179.09765625 -69.59765625 179.09765625 C-69.59765625 184.04765625 -69.59765625 188.99765625 -69.59765625 194.09765625 C-64.31765625 194.09765625 -59.03765625 194.09765625 -53.59765625 194.09765625 C-53.59765625 188.81765625 -53.59765625 183.53765625 -53.59765625 178.09765625 C-48.31765625 178.09765625 -43.03765625 178.09765625 -37.59765625 178.09765625 C-37.26765625 172.81765625 -36.93765625 167.53765625 -36.59765625 162.09765625 C-31.31765625 162.09765625 -26.03765625 162.09765625 -20.59765625 162.09765625 C-20.56671875 166.02671875 -20.56671875 166.02671875 -20.53515625 170.03515625 C-20.52605225 170.86136475 -20.51694824 171.68757324 -20.50756836 172.53881836 C-20.5004168 174.39199384 -20.54737105 176.24514933 -20.59765625 178.09765625 C-21.59765625 179.09765625 -21.59765625 179.09765625 -24.9765625 179.1953125 C-26.37113117 179.18957049 -27.76567222 179.17655853 -29.16015625 179.16015625 C-31.61453125 179.13953125 -34.06890625 179.11890625 -36.59765625 179.09765625 C-36.59765625 184.04765625 -36.59765625 188.99765625 -36.59765625 194.09765625 C-31.31765625 194.09765625 -26.03765625 194.09765625 -20.59765625 194.09765625 C-20.59765625 189.14765625 -20.59765625 184.19765625 -20.59765625 179.09765625 C-15.31765625 179.09765625 -10.03765625 179.09765625 -4.59765625 179.09765625 C-4.26765625 183.71765625 -3.93765625 188.33765625 -3.59765625 193.09765625 C1.35234375 193.42765625 6.30234375 193.75765625 11.40234375 194.09765625 C11.07234375 189.14765625 10.74234375 184.19765625 10.40234375 179.09765625 C6.7890625 178.90234375 3.17578125 178.70703125 -0.4375 178.51171875 C-1.48035156 178.37507812 -2.52320313 178.2384375 -3.59765625 178.09765625 C-5.79662494 173.69971887 -3.97734936 166.73834977 -3.59765625 162.09765625 C1.35234375 162.09765625 6.30234375 162.09765625 11.40234375 162.09765625 C11.40234375 156.81765625 11.40234375 151.53765625 11.40234375 146.09765625 C6.51080904 146.13722415 6.51080904 146.13722415 1.61938477 146.18774414 C-0.11987342 146.19490538 -1.85910929 146.14790327 -3.59765625 146.09765625 C-5.57982528 144.11548722 -5.00816549 140.26445566 -5.16015625 137.53515625 C-5.37671875 133.85359375 -5.37671875 133.85359375 -5.59765625 130.09765625 C-10.54765625 129.76765625 -15.49765625 129.43765625 -20.59765625 129.09765625 C-20.59765625 123.81765625 -20.59765625 118.53765625 -20.59765625 113.09765625 C-25.54765625 113.42765625 -30.49765625 113.75765625 -35.59765625 114.09765625 C-35.92765625 119.04765625 -36.25765625 123.99765625 -36.59765625 129.09765625 C-41.87765625 129.09765625 -47.15765625 129.09765625 -52.59765625 129.09765625 C-52.59765625 124.14765625 -52.59765625 119.19765625 -52.59765625 114.09765625 C-44.67765625 113.60265625 -44.67765625 113.60265625 -36.59765625 113.09765625 C-36.59765625 107.81765625 -36.59765625 102.53765625 -36.59765625 97.09765625 C-31.31765625 97.09765625 -26.03765625 97.09765625 -20.59765625 97.09765625 C-20.59765625 91.81765625 -20.59765625 86.53765625 -20.59765625 81.09765625 C-24.88765625 81.09765625 -29.17765625 81.09765625 -33.59765625 81.09765625 C-33.92765625 77.46765625 -34.25765625 73.83765625 -34.59765625 70.09765625 C-36.90765625 69.43765625 -39.21765625 68.77765625 -41.59765625 68.09765625 C-39.6171875 65.5859375 -39.6171875 65.5859375 -36.59765625 63.09765625 C-33.56595645 62.89277154 -31.23817862 62.91833756 -28.28515625 63.28515625 C-27.54458984 63.35541016 -26.80402344 63.42566406 -26.04101562 63.49804688 C-24.22407565 63.67387978 -22.41036231 63.88251722 -20.59765625 64.09765625 C-20.59765625 59.14765625 -20.59765625 54.19765625 -20.59765625 49.09765625 C-12.67765625 48.60265625 -12.67765625 48.60265625 -4.59765625 48.09765625 C-4.59765625 42.81765625 -4.59765625 37.53765625 -4.59765625 32.09765625 C-9.87765625 32.09765625 -15.15765625 32.09765625 -20.59765625 32.09765625 C-20.59765625 26.81765625 -20.59765625 21.53765625 -20.59765625 16.09765625 C-15.31765625 16.09765625 -10.03765625 16.09765625 -4.59765625 16.09765625 C-4.63722415 11.20612154 -4.63722415 11.20612154 -4.68774414 6.31469727 C-4.69490538 4.57543908 -4.64790327 2.83620321 -4.59765625 1.09765625 C-3.59765625 0.09765625 -3.59765625 0.09765625 0 0 Z " fill="#F7F7F7" transform="translate(215.59765625,32.90234375)"/>
<path d="M0 0 C3.96 0 7.92 0 12 0 C12.99 3.465 12.99 3.465 14 7 C14.5775 6.690625 15.155 6.38125 15.75 6.0625 C19.65939829 4.21639525 19.65939829 4.21639525 22 4 C23.6484375 5.6171875 23.6484375 5.6171875 25.375 7.875 C29.16283508 12.00783714 31.88378057 12.6267629 37.4375 12.9375 C39.26087891 12.95103516 39.26087891 12.95103516 41.12109375 12.96484375 C44 13 44 13 45 14 C45.07320163 16.5327765 45.09227569 19.03103918 45.0625 21.5625 C45.041875 24.016875 45.02125 26.47125 45 29 C50.28 29 55.56 29 61 29 C61 23.72 61 18.44 61 13 C66.28 13 71.56 13 77 13 C77 18.28 77 23.56 77 29 C72.53794887 31.23102556 65.78092876 30.04346299 61 30 C61 34.95 61 39.9 61 45 C59.80761719 44.95359375 58.61523438 44.9071875 57.38671875 44.859375 C55.82033753 44.82185689 54.25392924 44.78545677 52.6875 44.75 C51.90181641 44.71648437 51.11613281 44.68296875 50.30664062 44.6484375 C48.13339453 44.61144608 46.14030099 44.61632366 44 45 C41.90343347 46.8426752 41.90343347 46.8426752 41 49 C43.31 49.66 45.62 50.32 48 51 C48 54.63 48 58.26 48 62 C52.29 62 56.58 62 61 62 C61 67.28 61 72.56 61 78 C55.72 78 50.44 78 45 78 C45 83.28 45 88.56 45 94 C39.83608171 95.7213061 34.40708764 95.05353552 29 95 C29 99.95 29 104.9 29 110 C34.28 110 39.56 110 45 110 C44.9604321 105.10846529 44.9604321 105.10846529 44.90991211 100.21704102 C44.90275087 98.47778283 44.94975298 96.73854696 45 95 C46 94 46 94 49.37890625 93.90234375 C50.77347492 93.90808576 52.16801597 93.92109772 53.5625 93.9375 C56.016875 93.958125 58.47125 93.97875 61 94 C61 99.28 61 104.56 61 110 C65.89153471 109.9604321 65.89153471 109.9604321 70.78295898 109.90991211 C72.52221717 109.90275087 74.26145304 109.94975298 76 110 C77.98216903 111.98216903 77.41050924 115.83320059 77.5625 118.5625 C77.7790625 122.2440625 77.7790625 122.2440625 78 126 C82.95 126.33 87.9 126.66 93 127 C93 132.28 93 137.56 93 143 C88.05 143 83.1 143 78 143 C78 147.95 78 152.9 78 158 C81.61328125 158.22786458 85.2265625 158.45572917 88.83984375 158.68359375 C92 159 92 159 93 160 C93.07313567 162.53049402 93.09247527 165.03304837 93.0625 167.5625 C93.05798828 168.27341797 93.05347656 168.98433594 93.04882812 169.71679688 C93.03700864 171.47790013 93.01907263 173.23896036 93 175 C90.52076199 175.02685095 88.0418116 175.04676547 85.5625 175.0625 C84.85544922 175.07087891 84.14839844 175.07925781 83.41992188 175.08789062 C81.61306441 175.09653588 79.80612397 175.05220011 78 175 C77 174 77 174 76.90234375 170.83984375 C76.93489583 167.2265625 76.96744792 163.61328125 77 160 C71.72 160 66.44 160 61 160 C61 164.95 61 169.9 61 175 C55.72 175 50.44 175 45 175 C45 170.05 45 165.1 45 160 C49.95 159.67 54.9 159.34 60 159 C60.33 153.72 60.66 148.44 61 143 C55.72 143 50.44 143 45 143 C45.0309375 146.403125 45.0309375 146.403125 45.0625 149.875 C45.125 156.75 45.125 156.75 44 159 C38.72 159 33.44 159 28 159 C28 164.28 28 169.56 28 175 C22.72 175 17.44 175 12 175 C12 170.05 12 165.1 12 160 C6.72 160 1.44 160 -4 160 C-3.505 167.425 -3.505 167.425 -3 175 C1.95 175.33 6.9 175.66 12 176 C12 181.28 12 186.56 12 192 C6.72 192 1.44 192 -4 192 C-4 197.28 -4 202.56 -4 208 C-9.28 208 -14.56 208 -20 208 C-20 202.72 -20 197.44 -20 192 C-25.28 192 -30.56 192 -36 192 C-36 197.28 -36 202.56 -36 208 C-41.61 208 -47.22 208 -53 208 C-53 202.72 -53 197.44 -53 192 C-58.28 192 -63.56 192 -69 192 C-69 197.28 -69 202.56 -69 208 C-74.28 208 -79.56 208 -85 208 C-85 202.72 -85 197.44 -85 192 C-90.28 192 -95.56 192 -101 192 C-101.020625 189.380625 -101.04125 186.76125 -101.0625 184.0625 C-101.071604 183.2362915 -101.08070801 182.41008301 -101.09008789 181.55883789 C-101.09723945 179.70566241 -101.0502852 177.85250692 -101 176 C-99.05909174 174.05909174 -95.52706098 174.60080565 -92.9375 174.4375 C-89.5034375 174.2209375 -89.5034375 174.2209375 -86 174 C-85.67 169.38 -85.34 164.76 -85 160 C-79.72 160 -74.44 160 -69 160 C-69 164.95 -69 169.9 -69 175 C-63.72 175 -58.44 175 -53 175 C-53 169.72 -53 164.44 -53 159 C-47.72 159 -42.44 159 -37 159 C-37 153.72 -37 148.44 -37 143 C-42.28 143 -47.56 143 -53 143 C-53 137.72 -53 132.44 -53 127 C-58.28 127 -63.56 127 -69 127 C-69 121.72 -69 116.44 -69 111 C-60.585 110.505 -60.585 110.505 -52 110 C-52.33 109.34 -52.66 108.68 -53 108 C-52.93715613 105.64335485 -52.80197 103.2883312 -52.625 100.9375 C-52.48964844 99.03291016 -52.48964844 99.03291016 -52.3515625 97.08984375 C-52 94 -52 94 -51 93 C-52.65 91.35 -54.3 89.7 -56 88 C-55.55527344 87.21496094 -55.11054687 86.42992187 -54.65234375 85.62109375 C-51.06305541 79.22601912 -51.06305541 79.22601912 -50.0625 72.125 C-50.371875 71.09375 -50.68125 70.0625 -51 69 C-51.84806603 64.72358193 -52.13512092 60.66955674 -52.125 56.3125 C-52.12886719 54.63607422 -52.12886719 54.63607422 -52.1328125 52.92578125 C-52 50 -52 50 -51 47 C-40.34888474 49.14527763 -30.24929548 52.44553052 -20 56 C-20 52.7 -20 49.4 -20 46 C-16.7 46 -13.4 46 -10 46 C-9.70684548 41.01637315 -9.73505782 37.89686647 -13 34 C-18.22212912 29.88896218 -22.59874007 29.37027116 -29.19140625 29.6171875 C-33.07246516 30.14617745 -35.16757569 31.3091969 -38 34 C-40.26749726 37.00290178 -41.81166449 39.43499348 -43 43 C-46.96 42.01 -50.92 41.02 -55 40 C-55 39.34 -55 38.68 -55 38 C-52.36 38 -49.72 38 -47 38 C-47.474375 37.2575 -47.94875 36.515 -48.4375 35.75 C-50.77981651 31.62752294 -50.77981651 31.62752294 -51 29 C-49.5234375 26.82421875 -49.5234375 26.82421875 -47.375 24.6875 C-46.68148437 23.96949219 -45.98796875 23.25148438 -45.2734375 22.51171875 C-43 21 -43 21 -40.4140625 21.14453125 C-38 22 -38 22 -35 24 C-34.690625 22.865625 -34.38125 21.73125 -34.0625 20.5625 C-33 17 -33 17 -32 16 C-29.81360547 15.92741054 -27.62499611 15.91626217 -25.4375 15.9375 C-23.64119141 15.95103516 -23.64119141 15.95103516 -21.80859375 15.96484375 C-20.88175781 15.97644531 -19.95492187 15.98804687 -19 16 C-18.505 17.98 -18.505 17.98 -18 20 C-16.35 20 -14.7 20 -13 20 C-13.495 19.2575 -13.99 18.515 -14.5 17.75 C-16 15 -16 15 -16 11 C-14.609375 9.04296875 -14.609375 9.04296875 -12.75 7.1875 C-12.14671875 6.56230469 -11.5434375 5.93710937 -10.921875 5.29296875 C-9 4 -9 4 -6.953125 4.17578125 C-5 5 -5 5 -2 7 C-1.34 4.69 -0.68 2.38 0 0 Z " fill="#ECECEC" transform="translate(134,52)"/>
<path d="M0 0 C53.46 0 106.92 0 162 0 C162 5.28 162 10.56 162 16 C156.72 16 151.44 16 146 16 C146 21.28 146 26.56 146 32 C140.72 32 135.44 32 130 32 C130 26.72 130 21.44 130 16 C124.72 16 119.44 16 114 16 C114 21.28 114 26.56 114 32 C108.39 32 102.78 32 97 32 C97.03957157 37.22063275 97.03957157 37.22063275 97.09008789 42.44116211 C97.09723945 44.29433759 97.0502852 46.14749308 97 48 C96 49 96 49 92.875 49.1328125 C91.59625 49.13023438 90.3175 49.12765625 89 49.125 C87.72125 49.12757812 86.4425 49.13015625 85.125 49.1328125 C82 49 82 49 81 48 C80.92679837 45.4672235 80.90772431 42.96896082 80.9375 40.4375 C80.958125 37.983125 80.97875 35.52875 81 33 C75.72 33 70.44 33 65 33 C65 38.28 65 43.56 65 49 C70.28 49 75.56 49 81 49 C81 54.28 81 59.56 81 65 C75.72 65 70.44 65 65 65 C65 70.28 65 75.56 65 81 C70.28 81 75.56 81 81 81 C80.9604321 76.10846529 80.9604321 76.10846529 80.90991211 71.21704102 C80.90275087 69.47778283 80.94975298 67.73854696 81 66 C82 65 82 65 85.37890625 64.90234375 C86.77347077 64.90901631 88.16801743 64.92097468 89.5625 64.9375 C90.62887695 64.94426758 90.62887695 64.94426758 91.71679688 64.95117188 C93.47790013 64.96299136 95.23896036 64.98092737 97 65 C97.495 70.445 97.495 70.445 98 76 C96.515 75.01 96.515 75.01 95 74 C90.44585772 74 88.15201685 76.34942228 85.0390625 79.33203125 C83.783131 80.9690964 83.783131 80.9690964 84.2109375 83.07421875 C84.93346258 85.1909405 84.93346258 85.1909405 87 87 C87 87.99 87 88.98 87 90 C84.36 90 81.72 90 79 90 C79 90.66 79 91.32 79 92 C79.66 92 80.32 92 81 92 C81 93.65 81 95.3 81 97 C75.72 97 70.44 97 65 97 C65 92.05 65 87.1 65 82 C59.72 82 54.44 82 49 82 C49.020625 84.289375 49.04125 86.57875 49.0625 88.9375 C49.08370868 91.29166332 49.07271741 93.64686445 49 96 C48 97 48 97 44.62109375 97.09765625 C43.22652508 97.09191424 41.83198403 97.07890228 40.4375 97.0625 C37.983125 97.041875 35.52875 97.02125 33 97 C33 92.05 33 87.1 33 82 C37.46205113 79.76897444 44.21907124 80.95653701 49 81 C49 75.72 49 70.44 49 65 C43.72 65 38.44 65 33 65 C33 59.72 33 54.44 33 49 C37.95 48.67 42.9 48.34 48 48 C48.33 43.05 48.66 38.1 49 33 C43.72 33 38.44 33 33 33 C32.505 33.99 32.505 33.99 32 35 C32 34.34 32 33.68 32 33 C21.44 33 10.88 33 0 33 C0 22.11 0 11.22 0 0 Z " fill="#F0F0F0" transform="translate(0,0)"/>
<path d="M0 0 C9.77631647 1.86585762 19.11023763 4.88032422 28.56103516 7.95068359 C34.62418776 9.91996667 40.68985361 11.84889164 46.8125 13.625 C47.47113037 13.81618408 48.12976074 14.00736816 48.80834961 14.2043457 C50.15208244 14.59376468 51.49591502 14.98283964 52.83984375 15.37158203 C64.29412516 18.7037837 75.72324957 22.10356184 87 26 C85.53039308 30.88606426 83.46829941 35.1858985 81.125 39.6875 C70.85063549 59.96439605 68.31756718 79.46915612 68 102 C63.73228436 102.83966999 59.46387778 103.67571071 55.19482422 104.50854492 C53.74574074 104.79175289 52.29684309 105.07591357 50.84814453 105.36108398 C48.75342395 105.773243 46.65803603 106.18185349 44.5625 106.58984375 C43.30566406 106.83597412 42.04882812 107.08210449 40.75390625 107.33569336 C36.8397149 108.02836471 32.94729362 108.53909992 29 109 C28.66031579 105.18803848 28.32942405 101.3753608 28 97.5625 C27.90460938 96.49322266 27.80921875 95.42394531 27.7109375 94.32226562 C27.18559128 88.18697229 26.89640421 82.15747494 27 76 C25.3603125 76.495 25.3603125 76.495 23.6875 77 C18.54560928 78.28777227 13.27047548 78.60335409 8 78 C5.52645803 75.52645803 5.73116465 74.59657025 5.5625 71.1875 C5.23399733 66.95346565 4.34807894 64.57316361 2 61 C1.875 58.4375 1.875 58.4375 2 56 C1.7215625 55.0409375 1.7215625 55.0409375 1.4375 54.0625 C0.83301649 51.21279201 1.42201705 48.82569444 2 46 C1.21625 45.731875 0.4325 45.46375 -0.375 45.1875 C-3 44 -3 44 -5 41 C-4.55527344 40.21496094 -4.11054687 39.42992187 -3.65234375 38.62109375 C-0.06305541 32.22601912 -0.06305541 32.22601912 0.9375 25.125 C0.628125 24.09375 0.31875 23.0625 0 22 C-0.84806603 17.72358193 -1.13512092 13.66955674 -1.125 9.3125 C-1.12757812 8.19488281 -1.13015625 7.07726562 -1.1328125 5.92578125 C-1 3 -1 3 0 0 Z " fill="#2F3D55" transform="translate(83,99)"/>
<path d="M0 0 C3.96 0 7.92 0 12 0 C12.99 3.465 12.99 3.465 14 7 C14.5775 6.690625 15.155 6.38125 15.75 6.0625 C19.65939829 4.21639525 19.65939829 4.21639525 22 4 C23.6484375 5.6171875 23.6484375 5.6171875 25.375 7.875 C29.16283508 12.00783714 31.88378057 12.6267629 37.4375 12.9375 C39.26087891 12.95103516 39.26087891 12.95103516 41.12109375 12.96484375 C44 13 44 13 45 14 C45.07320163 16.5327765 45.09227569 19.03103918 45.0625 21.5625 C45.041875 24.016875 45.02125 26.47125 45 29 C50.28 29 55.56 29 61 29 C61 23.72 61 18.44 61 13 C66.28 13 71.56 13 77 13 C77 18.28 77 23.56 77 29 C72.53794887 31.23102556 65.78092876 30.04346299 61 30 C61 34.95 61 39.9 61 45 C59.80761719 44.95359375 58.61523438 44.9071875 57.38671875 44.859375 C55.82033753 44.82185689 54.25392924 44.78545677 52.6875 44.75 C51.50897461 44.69972656 51.50897461 44.69972656 50.30664062 44.6484375 C48.13339453 44.61144608 46.14030099 44.61632366 44 45 C41.90343347 46.8426752 41.90343347 46.8426752 41 49 C43.31 49.66 45.62 50.32 48 51 C48 54.63 48 58.26 48 62 C52.29 62 56.58 62 61 62 C61 67.28 61 72.56 61 78 C55.72 78 50.44 78 45 78 C45 83.28 45 88.56 45 94 C39.72 94 34.44 94 29 94 C29 93.34 29 92.68 29 92 C28.34 92 27.68 92 27 92 C28.3922459 87.37324343 30.29520984 83.35313769 32.625 79.125 C33.57246094 77.39636719 33.57246094 77.39636719 34.5390625 75.6328125 C35.02117187 74.76398438 35.50328125 73.89515625 36 73 C35.27006836 72.82259277 34.54013672 72.64518555 33.78808594 72.46240234 C26.55544909 70.68257694 19.39416045 68.7303322 12.25 66.625 C11.21520508 66.32118408 10.18041016 66.01736816 9.11425781 65.7043457 C-14.52402528 58.73798736 -14.52402528 58.73798736 -20 56 C-20 52.7 -20 49.4 -20 46 C-16.7 46 -13.4 46 -10 46 C-9.70684548 41.01637315 -9.73505782 37.89686647 -13 34 C-18.22212912 29.88896218 -22.59874007 29.37027116 -29.19140625 29.6171875 C-33.07246516 30.14617745 -35.16757569 31.3091969 -38 34 C-40.26749726 37.00290178 -41.81166449 39.43499348 -43 43 C-46.96 42.01 -50.92 41.02 -55 40 C-55 39.34 -55 38.68 -55 38 C-52.36 38 -49.72 38 -47 38 C-47.474375 37.2575 -47.94875 36.515 -48.4375 35.75 C-50.77981651 31.62752294 -50.77981651 31.62752294 -51 29 C-49.5234375 26.82421875 -49.5234375 26.82421875 -47.375 24.6875 C-46.68148437 23.96949219 -45.98796875 23.25148438 -45.2734375 22.51171875 C-43 21 -43 21 -40.4140625 21.14453125 C-38 22 -38 22 -35 24 C-34.5359375 22.2984375 -34.5359375 22.2984375 -34.0625 20.5625 C-33 17 -33 17 -32 16 C-29.81360547 15.92741054 -27.62499611 15.91626217 -25.4375 15.9375 C-23.64119141 15.95103516 -23.64119141 15.95103516 -21.80859375 15.96484375 C-20.88175781 15.97644531 -19.95492187 15.98804687 -19 16 C-18.505 17.98 -18.505 17.98 -18 20 C-16.35 20 -14.7 20 -13 20 C-13.495 19.2575 -13.99 18.515 -14.5 17.75 C-16 15 -16 15 -16 11 C-14.609375 9.04296875 -14.609375 9.04296875 -12.75 7.1875 C-12.14671875 6.56230469 -11.5434375 5.93710937 -10.921875 5.29296875 C-9 4 -9 4 -6.953125 4.17578125 C-5 5 -5 5 -2 7 C-1.34 4.69 -0.68 2.38 0 0 Z " fill="#E9EBED" transform="translate(134,52)"/>
<path d="M0 0 C5.28 0 10.56 0 16 0 C16 5.28 16 10.56 16 16 C21.28 16 26.56 16 32 16 C32 21.28 32 26.56 32 32 C26.72 32 21.44 32 16 32 C16 37.28 16 42.56 16 48 C21.28 48 26.56 48 32 48 C31.9604321 43.10846529 31.9604321 43.10846529 31.90991211 38.21704102 C31.90275087 36.47778283 31.94975298 34.73854696 32 33 C33 32 33 32 36.37890625 31.90234375 C37.77347077 31.90901631 39.16801743 31.92097468 40.5625 31.9375 C41.62887695 31.94426758 41.62887695 31.94426758 42.71679688 31.95117188 C44.47790013 31.96299136 46.23896036 31.98092737 48 32 C48.495 37.445 48.495 37.445 49 43 C48.01 42.34 47.02 41.68 46 41 C41.44585772 41 39.15201685 43.34942228 36.0390625 46.33203125 C34.783131 47.9690964 34.783131 47.9690964 35.2109375 50.07421875 C35.93346258 52.1909405 35.93346258 52.1909405 38 54 C38 54.99 38 55.98 38 57 C35.36 57 32.72 57 30 57 C30 57.66 30 58.32 30 59 C30.66 59 31.32 59 32 59 C32 60.65 32 62.3 32 64 C26.72 64 21.44 64 16 64 C16 59.05 16 54.1 16 49 C10.72 49 5.44 49 0 49 C0.020625 51.289375 0.04125 53.57875 0.0625 55.9375 C0.08370868 58.29166332 0.07271741 60.64686445 0 63 C-1 64 -1 64 -4.37890625 64.09765625 C-5.77347492 64.09191424 -7.16801597 64.07890228 -8.5625 64.0625 C-11.016875 64.041875 -13.47125 64.02125 -16 64 C-16 59.05 -16 54.1 -16 49 C-11.53794887 46.76897444 -4.78092876 47.95653701 0 48 C0 42.72 0 37.44 0 32 C-5.28 32 -10.56 32 -16 32 C-16 26.72 -16 21.44 -16 16 C-11.05 15.67 -6.1 15.34 -1 15 C-0.67 10.05 -0.34 5.1 0 0 Z " fill="#FDFDFD" transform="translate(49,33)"/>
<path d="M0 0 C3.96 0 7.92 0 12 0 C12.99 3.465 12.99 3.465 14 7 C14.5775 6.690625 15.155 6.38125 15.75 6.0625 C17.95511419 5.02119608 19.57855917 4.27506125 22 4 C24.87091353 5.84517796 27.02618543 8.22645021 29 11 C29.08108163 14.48651 27.67801699 16.97956941 26 20 C27.4540625 19.9690625 27.4540625 19.9690625 28.9375 19.9375 C32 20 32 20 33 21 C33.04092937 23.33297433 33.04241723 25.66705225 33 28 C32.38125 27.525625 31.7625 27.05125 31.125 26.5625 C27.95031034 24.97515517 26.39363864 24.82023206 22.9375 24.6875 C20.30078125 24.5078125 20.30078125 24.5078125 18 24 C15.625 21.0625 15.625 21.0625 14 18 C10.99636405 15.64000032 7.7377241 15.57811873 3.96875 15.68359375 C0.7429994 16.20201795 -0.86426719 17.60539049 -3 20 C-4.14768913 22.48250172 -4.14768913 22.48250172 -4 25 C-3.505 25.495 -3.01 25.99 -2.5 26.5 C-2.005 26.995 -1.51 27.49 -1 28 C-1.12186118 32.5088638 -3.49138851 35.39387098 -6 39 C-6.33 39.99 -6.66 40.98 -7 42 C-7.66 42 -8.32 42 -9 42 C-9.20753906 41.46890625 -9.41507813 40.9378125 -9.62890625 40.390625 C-11.53334988 36.02395089 -13.3174326 32.79782958 -17.80859375 30.625 C-23.81996622 28.91052657 -29.84055065 28.99739852 -35.5 31.625 C-39.06284148 35.00969941 -41.44340727 38.3302218 -43 43 C-46.96 42.01 -50.92 41.02 -55 40 C-55 39.34 -55 38.68 -55 38 C-52.36 38 -49.72 38 -47 38 C-47.474375 37.2575 -47.94875 36.515 -48.4375 35.75 C-50.77981651 31.62752294 -50.77981651 31.62752294 -51 29 C-49.5234375 26.82421875 -49.5234375 26.82421875 -47.375 24.6875 C-46.68148437 23.96949219 -45.98796875 23.25148438 -45.2734375 22.51171875 C-43 21 -43 21 -40.4140625 21.14453125 C-38 22 -38 22 -35 24 C-34.5359375 22.2984375 -34.5359375 22.2984375 -34.0625 20.5625 C-33 17 -33 17 -32 16 C-29.81360547 15.92741054 -27.62499611 15.91626217 -25.4375 15.9375 C-23.64119141 15.95103516 -23.64119141 15.95103516 -21.80859375 15.96484375 C-20.88175781 15.97644531 -19.95492187 15.98804687 -19 16 C-18.505 17.98 -18.505 17.98 -18 20 C-16.35 20 -14.7 20 -13 20 C-13.495 19.2575 -13.99 18.515 -14.5 17.75 C-16 15 -16 15 -16 11 C-14.609375 9.04296875 -14.609375 9.04296875 -12.75 7.1875 C-12.14671875 6.56230469 -11.5434375 5.93710937 -10.921875 5.29296875 C-9 4 -9 4 -6.953125 4.17578125 C-5 5 -5 5 -2 7 C-1.34 4.69 -0.68 2.38 0 0 Z " fill="#323E56" transform="translate(134,52)"/>
<path d="M0 0 C5.28 0 10.56 0 16 0 C16.495 7.425 16.495 7.425 17 15 C21.95 15.33 26.9 15.66 32 16 C32 21.28 32 26.56 32 32 C27.05 32 22.1 32 17 32 C17 36.95 17 41.9 17 47 C20.61328125 47.22786458 24.2265625 47.45572917 27.83984375 47.68359375 C31 48 31 48 32 49 C32.07313567 51.53049402 32.09247527 54.03304837 32.0625 56.5625 C32.05798828 57.27341797 32.05347656 57.98433594 32.04882812 58.71679688 C32.03700864 60.47790013 32.01907263 62.23896036 32 64 C29.52076199 64.02685095 27.0418116 64.04676547 24.5625 64.0625 C23.85544922 64.07087891 23.14839844 64.07925781 22.41992188 64.08789062 C20.61306441 64.09653588 18.80612397 64.05220011 17 64 C16 63 16 63 15.90234375 59.83984375 C15.93489583 56.2265625 15.96744792 52.61328125 16 49 C10.72 49 5.44 49 0 49 C0 53.95 0 58.9 0 64 C-5.28 64 -10.56 64 -16 64 C-16 59.05 -16 54.1 -16 49 C-11.05 48.67 -6.1 48.34 -1 48 C-0.67 42.72 -0.34 37.44 0 32 C5.28 32 10.56 32 16 32 C16 26.72 16 21.44 16 16 C10.72 16 5.44 16 0 16 C0 10.72 0 5.44 0 0 Z " fill="#E5E5E5" transform="translate(195,163)"/>
<path d="M0 0 C5.28 0 10.56 0 16 0 C16 5.28 16 10.56 16 16 C21.28 16 26.56 16 32 16 C32 21.28 32 26.56 32 32 C26.72 32 21.44 32 16 32 C16 37.28 16 42.56 16 48 C10.72 48 5.44 48 0 48 C0 42.72 0 37.44 0 32 C-5.28 32 -10.56 32 -16 32 C-16 26.72 -16 21.44 -16 16 C-11.05 16 -6.1 16 -1 16 C-1.020625 13.916875 -1.04125 11.83375 -1.0625 9.6875 C-1.125 3.375 -1.125 3.375 0 0 Z " fill="#E6E6E6" transform="translate(228,33)"/>
<path d="M0 0 C1.093125 0.00257812 2.18625 0.00515625 3.3125 0.0078125 C4.405625 0.00523438 5.49875 0.00265625 6.625 0 C9.3125 0.1328125 9.3125 0.1328125 10.3125 1.1328125 C10.35342937 3.46578683 10.35491723 5.79986475 10.3125 8.1328125 C11.055 7.6378125 11.7975 7.1428125 12.5625 6.6328125 C15.3125 5.1328125 15.3125 5.1328125 19.3125 5.1328125 C21.26953125 6.5234375 21.26953125 6.5234375 23.125 8.3828125 C23.75019531 8.98609375 24.37539062 9.589375 25.01953125 10.2109375 C26.3125 12.1328125 26.3125 12.1328125 26.13671875 14.1796875 C25.3125 16.1328125 25.3125 16.1328125 23.3125 19.1328125 C25.6225 19.7928125 27.9325 20.4528125 30.3125 21.1328125 C30.33936553 23.11190648 30.35883375 25.09110221 30.375 27.0703125 C30.38660156 28.17246094 30.39820313 29.27460937 30.41015625 30.41015625 C30.3125 33.1328125 30.3125 33.1328125 29.3125 34.1328125 C27.31291636 34.17362033 25.31204746 34.17535606 23.3125 34.1328125 C23.3125 34.7928125 23.3125 35.4528125 23.3125 36.1328125 C15.5625 36.2578125 15.5625 36.2578125 13.3125 35.1328125 C13.6425 34.1428125 13.9725 33.1528125 14.3125 32.1328125 C14.83279311 27.5781154 14.94594014 24.19608702 12.5625 20.1953125 C9.23978316 17.14948873 7.44268796 16.27931835 2.9375 15.6953125 C-1.77705087 16.26431002 -3.50234864 17.65136799 -6.6875 21.1328125 C-7.70878427 23.49789186 -8.18706138 25.58057555 -8.6875 28.1328125 C-10.43878818 27.84898304 -12.18850003 27.55541721 -13.9375 27.2578125 C-15.39929688 27.01417969 -15.39929688 27.01417969 -16.890625 26.765625 C-19.46014117 26.18425402 -21.40821056 25.42440985 -23.6875 24.1328125 C-23.3575 22.8128125 -23.0275 21.4928125 -22.6875 20.1328125 C-20.7075 19.8028125 -18.7275 19.4728125 -16.6875 19.1328125 C-17.4609375 18.2665625 -17.4609375 18.2665625 -18.25 17.3828125 C-19.6875 15.1328125 -19.6875 15.1328125 -19.5 13.2265625 C-18.49222351 10.62960002 -17.14219226 9.2899761 -15.125 7.3828125 C-14.48433594 6.76921875 -13.84367188 6.155625 -13.18359375 5.5234375 C-12.68988281 5.06453125 -12.19617188 4.605625 -11.6875 4.1328125 C-10.76710937 4.60847656 -10.76710937 4.60847656 -9.828125 5.09375 C-7.77755979 6.08909735 -5.90827983 6.65693111 -3.6875 7.1328125 C-3.708125 6.1634375 -3.72875 5.1940625 -3.75 4.1953125 C-3.66808079 0.18127143 -3.66808079 0.18127143 0 0 Z " fill="#323F56" transform="translate(151.6875,81.8671875)"/>
<path d="M0 0 C5.28 0 10.56 0 16 0 C16.33 4.95 16.66 9.9 17 15 C21.95 15.33 26.9 15.66 32 16 C32 21.28 32 26.56 32 32 C27.05 32.33 22.1 32.66 17 33 C16.67 37.95 16.34 42.9 16 48 C10.72 48 5.44 48 0 48 C0 42.72 0 37.44 0 32 C5.28 32 10.56 32 16 32 C16 26.72 16 21.44 16 16 C10.72 16 5.44 16 0 16 C0 10.72 0 5.44 0 0 Z " fill="#E5E5E5" transform="translate(65,33)"/>
<path d="M0 0 C5.28 0 10.56 0 16 0 C16 5.28 16 10.56 16 16 C21.28 16 26.56 16 32 16 C32.495 21.94 32.495 21.94 33 28 C32.01 28 31.02 28 30 28 C29.360625 27.319375 28.72125 26.63875 28.0625 25.9375 C27.381875 25.298125 26.70125 24.65875 26 24 C23.01736939 24.18641441 20.61292041 25.60022121 18 27 C17.34 24.69 16.68 22.38 16 20 C12.04 20 8.08 20 4 20 C3.34 22.31 2.68 24.62 2 27 C1.4225 26.484375 0.845 25.96875 0.25 25.4375 C-1.83165877 23.7751158 -1.83165877 23.7751158 -3.9375 24.21875 C-6.33216988 25.12582192 -7.50834298 26.20209364 -9.25 28.0625 C-9.77078125 28.61035156 -10.2915625 29.15820312 -10.828125 29.72265625 C-11.40820312 30.35494141 -11.40820312 30.35494141 -12 31 C-11.5359375 31.86625 -11.5359375 31.86625 -11.0625 32.75 C-10.07416636 34.84294184 -9.4831387 36.74535275 -9 39 C-10.65 39 -12.3 39 -14 39 C-14.33 38.01 -14.66 37.02 -15 36 C-19.29 36 -23.58 36 -28 36 C-28.99 38.64 -29.98 41.28 -31 44 C-31.33 44 -31.66 44 -32 44 C-32 40.04 -32 36.08 -32 32 C-26.72 32 -21.44 32 -16 32 C-16 26.72 -16 21.44 -16 16 C-10.72 16 -5.44 16 0 16 C0 10.72 0 5.44 0 0 Z " fill="#E4E4E4" transform="translate(130,33)"/>
<path d="M0 0 C5.28 0 10.56 0 16 0 C16 5.28 16 10.56 16 16 C21.28 16 26.56 16 32 16 C32 21.28 32 26.56 32 32 C26.72 32 21.44 32 16 32 C15.67 27.05 15.34 22.1 15 17 C12.73125 16.9175 10.4625 16.835 8.125 16.75 C4.2578125 16.609375 4.2578125 16.609375 1 16 C-1.10425291 13.62711905 -1.00112412 12.14463635 -0.9765625 8.984375 C-0.65104167 5.98958333 -0.32552083 2.99479167 0 0 Z " fill="#FEFEFE" transform="translate(163,49)"/>
<path d="M0 0 C5.28 0 10.56 0 16 0 C16.33 4.95 16.66 9.9 17 15 C21.95 15.33 26.9 15.66 32 16 C32 21.28 32 26.56 32 32 C26.72 32 21.44 32 16 32 C16 26.72 16 21.44 16 16 C10.72 16 5.44 16 0 16 C0 10.72 0 5.44 0 0 Z " fill="#E5E5E5" transform="translate(0,228)"/>
<path d="M0 0 C5.28 0 10.56 0 16 0 C16.33 4.95 16.66 9.9 17 15 C21.95 15.33 26.9 15.66 32 16 C32 21.28 32 26.56 32 32 C26.72 32 21.44 32 16 32 C16 26.72 16 21.44 16 16 C10.72 16 5.44 16 0 16 C0 10.72 0 5.44 0 0 Z " fill="#E5E5E5" transform="translate(65,163)"/>
<path d="M0 0 C5.28 0 10.56 0 16 0 C16 5.28 16 10.56 16 16 C11.05 16.33 6.1 16.66 1 17 C0.67 21.95 0.34 26.9 0 32 C-5.28 32 -10.56 32 -16 32 C-16 27.05 -16 22.1 -16 17 C-10.72 16.67 -5.44 16.34 0 16 C0 10.72 0 5.44 0 0 Z " fill="#FEFEFE" transform="translate(179,130)"/>
<path d="M0 0 C0.33 0 0.66 0 1 0 C3.80516356 10.43242646 1.63427468 16.38943775 -3 26 C-2.34 26.66 -1.68 27.32 -1 28 C-1 28.99 -1 29.98 -1 31 C-6.28 31 -11.56 31 -17 31 C-17 25.72 -17 20.44 -17 15 C-11.72 15 -6.44 15 -1 15 C-1.020625 12.710625 -1.04125 10.42125 -1.0625 8.0625 C-1.08370868 5.70833668 -1.07271741 3.35313555 -1 1 C-0.67 0.67 -0.34 0.34 0 0 Z " fill="#E3E4E5" transform="translate(82,115)"/>
<path d="M0 0 C1.32 0.33 2.64 0.66 4 1 C3.67 1.66 3.34 2.32 3 3 C2.34 2.67 1.68 2.34 1 2 C0.67 7.28 0.34 12.56 0 18 C-5.28 18 -10.56 18 -16 18 C-16 12.72 -16 7.44 -16 2 C-10.72 2 -5.44 2 0 2 C0 1.34 0 0.68 0 0 Z " fill="#FDFDFD" transform="translate(81,144)"/>
<path d="M0 0 C5.28 0 10.56 0 16 0 C17.125 13.75 17.125 13.75 16 16 C10.72 16 5.44 16 0 16 C0 10.72 0 5.44 0 0 Z " fill="#E5E5E5" transform="translate(65,98)"/>
<path d="M0 0 C1.94468659 5.70441399 0.48755338 12.14935947 0 18 C-5.28 18 -10.56 18 -16 18 C-16 12.72 -16 7.44 -16 2 C-10.72 2 -5.44 2 0 2 C0 1.34 0 0.68 0 0 Z " fill="#FEFEFE" transform="translate(81,112)"/>
<path d="M0 0 C5.28 0 10.56 0 16 0 C16 5.28 16 10.56 16 16 C10.72 16 5.44 16 0 16 C0 10.72 0 5.44 0 0 Z " fill="#E5E5E5" transform="translate(244,244)"/>
<path d="M0 0 C5.28 0 10.56 0 16 0 C16 5.28 16 10.56 16 16 C10.72 16 5.44 16 0 16 C0 10.72 0 5.44 0 0 Z " fill="#E5E5E5" transform="translate(211,244)"/>
<path d="M0 0 C5.28 0 10.56 0 16 0 C16 5.28 16 10.56 16 16 C10.72 16 5.44 16 0 16 C0 10.72 0 5.44 0 0 Z " fill="#E5E5E5" transform="translate(179,244)"/>
<path d="M0 0 C5.28 0 10.56 0 16 0 C16 5.28 16 10.56 16 16 C10.72 16 5.44 16 0 16 C0 10.72 0 5.44 0 0 Z " fill="#E5E5E5" transform="translate(114,244)"/>
<path d="M0 0 C5.28 0 10.56 0 16 0 C16 5.28 16 10.56 16 16 C10.72 16 5.44 16 0 16 C0 10.72 0 5.44 0 0 Z " fill="#E5E5E5" transform="translate(81,244)"/>
<path d="M0 0 C5.28 0 10.56 0 16 0 C16 5.28 16 10.56 16 16 C10.72 16 5.44 16 0 16 C0 10.72 0 5.44 0 0 Z " fill="#E5E5E5" transform="translate(49,244)"/>
<path d="M0 0 C5.28 0 10.56 0 16 0 C16 5.28 16 10.56 16 16 C10.72 16 5.44 16 0 16 C0 10.72 0 5.44 0 0 Z " fill="#FEFEFE" transform="translate(244,228)"/>
<path d="M0 0 C5.28 0 10.56 0 16 0 C16 5.28 16 10.56 16 16 C10.72 16 5.44 16 0 16 C0 10.72 0 5.44 0 0 Z " fill="#E5E5E5" transform="translate(228,228)"/>
<path d="M0 0 C5.28 0 10.56 0 16 0 C16 5.28 16 10.56 16 16 C10.72 16 5.44 16 0 16 C0 10.72 0 5.44 0 0 Z " fill="#E5E5E5" transform="translate(195,228)"/>
<path d="M0 0 C5.28 0 10.56 0 16 0 C16 5.28 16 10.56 16 16 C10.72 16 5.44 16 0 16 C0 10.72 0 5.44 0 0 Z " fill="#FEFEFE" transform="translate(179,228)"/>
<path d="M0 0 C5.28 0 10.56 0 16 0 C16 5.28 16 10.56 16 16 C10.72 16 5.44 16 0 16 C0 10.72 0 5.44 0 0 Z " fill="#E5E5E5" transform="translate(163,228)"/>
<path d="M0 0 C5.28 0 10.56 0 16 0 C16 5.28 16 10.56 16 16 C10.72 16 5.44 16 0 16 C0 10.72 0 5.44 0 0 Z " fill="#E5E5E5" transform="translate(130,228)"/>
<path d="M0 0 C5.28 0 10.56 0 16 0 C16 5.28 16 10.56 16 16 C10.72 16 5.44 16 0 16 C0 10.72 0 5.44 0 0 Z " fill="#FEFEFE" transform="translate(114,228)"/>
<path d="M0 0 C5.28 0 10.56 0 16 0 C16 5.28 16 10.56 16 16 C10.72 16 5.44 16 0 16 C0 10.72 0 5.44 0 0 Z " fill="#E5E5E5" transform="translate(98,228)"/>
<path d="M0 0 C5.28 0 10.56 0 16 0 C16 5.28 16 10.56 16 16 C10.72 16 5.44 16 0 16 C0 10.72 0 5.44 0 0 Z " fill="#E5E5E5" transform="translate(65,228)"/>
<path d="M0 0 C5.28 0 10.56 0 16 0 C16 5.28 16 10.56 16 16 C10.72 16 5.44 16 0 16 C0 10.72 0 5.44 0 0 Z " fill="#FEFEFE" transform="translate(49,228)"/>
<path d="M0 0 C5.28 0 10.56 0 16 0 C16 5.28 16 10.56 16 16 C10.72 16 5.44 16 0 16 C0 10.72 0 5.44 0 0 Z " fill="#E5E5E5" transform="translate(33,228)"/>
<path d="M0 0 C5.28 0 10.56 0 16 0 C16 5.28 16 10.56 16 16 C10.72 16 5.44 16 0 16 C0 10.72 0 5.44 0 0 Z " fill="#FEFEFE" transform="translate(0,211)"/>
<path d="M0 0 C5.28 0 10.56 0 16 0 C16 5.28 16 10.56 16 16 C10.72 16 5.44 16 0 16 C0 10.72 0 5.44 0 0 Z " fill="#FEFEFE" transform="translate(244,195)"/>
<path d="M0 0 C5.28 0 10.56 0 16 0 C16 5.28 16 10.56 16 16 C10.72 16 5.44 16 0 16 C0 10.72 0 5.44 0 0 Z " fill="#E5E5E5" transform="translate(228,195)"/>
<path d="M0 0 C5.28 0 10.56 0 16 0 C16 5.28 16 10.56 16 16 C10.72 16 5.44 16 0 16 C0 10.72 0 5.44 0 0 Z " fill="#FEFEFE" transform="translate(179,195)"/>
<path d="M0 0 C5.28 0 10.56 0 16 0 C16 5.28 16 10.56 16 16 C10.72 16 5.44 16 0 16 C0 10.72 0 5.44 0 0 Z " fill="#E5E5E5" transform="translate(65,195)"/>
<path d="M0 0 C5.28 0 10.56 0 16 0 C16 5.28 16 10.56 16 16 C10.72 16 5.44 16 0 16 C0 10.72 0 5.44 0 0 Z " fill="#FEFEFE" transform="translate(49,195)"/>
<path d="M0 0 C5.28 0 10.56 0 16 0 C16 5.28 16 10.56 16 16 C10.72 16 5.44 16 0 16 C0 10.72 0 5.44 0 0 Z " fill="#E5E5E5" transform="translate(33,195)"/>
<path d="M0 0 C5.28 0 10.56 0 16 0 C16 5.28 16 10.56 16 16 C10.72 16 5.44 16 0 16 C0 10.72 0 5.44 0 0 Z " fill="#FEFEFE" transform="translate(16,195)"/>
<path d="M0 0 C5.28 0 10.56 0 16 0 C16 5.28 16 10.56 16 16 C10.72 16 5.44 16 0 16 C0 10.72 0 5.44 0 0 Z " fill="#E5E5E5" transform="translate(0,195)"/>
<path d="M0 0 C5.28 0 10.56 0 16 0 C16 5.28 16 10.56 16 16 C10.72 16 5.44 16 0 16 C0 10.72 0 5.44 0 0 Z " fill="#E5E5E5" transform="translate(244,179)"/>
<path d="M0 0 C5.28 0 10.56 0 16 0 C16 5.28 16 10.56 16 16 C10.72 16 5.44 16 0 16 C0 10.72 0 5.44 0 0 Z " fill="#FEFEFE" transform="translate(228,179)"/>
<path d="M0 0 C5.28 0 10.56 0 16 0 C16 5.28 16 10.56 16 16 C10.72 16 5.44 16 0 16 C0 10.72 0 5.44 0 0 Z " fill="#FEFEFE" transform="translate(195,179)"/>
<path d="M0 0 C5.28 0 10.56 0 16 0 C16 5.28 16 10.56 16 16 C10.72 16 5.44 16 0 16 C0 10.72 0 5.44 0 0 Z " fill="#E5E5E5" transform="translate(179,179)"/>
<path d="M0 0 C5.28 0 10.56 0 16 0 C16 5.28 16 10.56 16 16 C10.72 16 5.44 16 0 16 C0 10.72 0 5.44 0 0 Z " fill="#FEFEFE" transform="translate(163,179)"/>
<path d="M0 0 C5.28 0 10.56 0 16 0 C16 5.28 16 10.56 16 16 C10.72 16 5.44 16 0 16 C0 10.72 0 5.44 0 0 Z " fill="#FEFEFE" transform="translate(65,179)"/>
<path d="M0 0 C5.28 0 10.56 0 16 0 C16 5.28 16 10.56 16 16 C10.72 16 5.44 16 0 16 C0 10.72 0 5.44 0 0 Z " fill="#E5E5E5" transform="translate(49,179)"/>
<path d="M0 0 C5.28 0 10.56 0 16 0 C16 5.28 16 10.56 16 16 C10.72 16 5.44 16 0 16 C0 10.72 0 5.44 0 0 Z " fill="#FEFEFE" transform="translate(33,179)"/>
<path d="M0 0 C5.28 0 10.56 0 16 0 C16 5.28 16 10.56 16 16 C10.72 16 5.44 16 0 16 C0 10.72 0 5.44 0 0 Z " fill="#E5E5E5" transform="translate(16,179)"/>
<path d="M0 0 C5.28 0 10.56 0 16 0 C16 5.28 16 10.56 16 16 C10.72 16 5.44 16 0 16 C0 10.72 0 5.44 0 0 Z " fill="#FEFEFE" transform="translate(0,179)"/>
<path d="M0 0 C5.28 0 10.56 0 16 0 C16 5.28 16 10.56 16 16 C10.72 16 5.44 16 0 16 C0 10.72 0 5.44 0 0 Z " fill="#FEFEFE" transform="translate(244,163)"/>
<path d="M0 0 C5.28 0 10.56 0 16 0 C16 5.28 16 10.56 16 16 C10.72 16 5.44 16 0 16 C0 10.72 0 5.44 0 0 Z " fill="#E5E5E5" transform="translate(228,163)"/>
<path d="M0 0 C5.28 0 10.56 0 16 0 C16 5.28 16 10.56 16 16 C10.72 16 5.44 16 0 16 C0 10.72 0 5.44 0 0 Z " fill="#FEFEFE" transform="translate(179,163)"/>
<path d="M0 0 C5.28 0 10.56 0 16 0 C16 5.28 16 10.56 16 16 C10.72 16 5.44 16 0 16 C0 10.72 0 5.44 0 0 Z " fill="#FEFEFE" transform="translate(49,163)"/>
<path d="M0 0 C5.28 0 10.56 0 16 0 C16 5.28 16 10.56 16 16 C10.72 16 5.44 16 0 16 C0 10.72 0 5.44 0 0 Z " fill="#E5E5E5" transform="translate(0,163)"/>
<path d="M0 0 C5.28 0 10.56 0 16 0 C16 5.28 16 10.56 16 16 C10.72 16 5.44 16 0 16 C0 10.72 0 5.44 0 0 Z " fill="#E5E5E5" transform="translate(244,146)"/>
<path d="M0 0 C5.28 0 10.56 0 16 0 C16 5.28 16 10.56 16 16 C10.72 16 5.44 16 0 16 C0 10.72 0 5.44 0 0 Z " fill="#FEFEFE" transform="translate(195,146)"/>
<path d="M0 0 C5.28 0 10.56 0 16 0 C16 5.28 16 10.56 16 16 C10.72 16 5.44 16 0 16 C0 10.72 0 5.44 0 0 Z " fill="#E5E5E5" transform="translate(49,146)"/>
<path d="M0 0 C5.28 0 10.56 0 16 0 C16 5.28 16 10.56 16 16 C10.72 16 5.44 16 0 16 C0 10.72 0 5.44 0 0 Z " fill="#FEFEFE" transform="translate(244,130)"/>
<path d="M0 0 C5.28 0 10.56 0 16 0 C16 5.28 16 10.56 16 16 C10.72 16 5.44 16 0 16 C0 10.72 0 5.44 0 0 Z " fill="#E5E5E5" transform="translate(228,130)"/>
<path d="M0 0 C5.28 0 10.56 0 16 0 C16 5.28 16 10.56 16 16 C10.72 16 5.44 16 0 16 C0 10.72 0 5.44 0 0 Z " fill="#E5E5E5" transform="translate(195,130)"/>
<path d="M0 0 C5.28 0 10.56 0 16 0 C16 5.28 16 10.56 16 16 C10.72 16 5.44 16 0 16 C0 10.72 0 5.44 0 0 Z " fill="#FEFEFE" transform="translate(49,130)"/>
<path d="M0 0 C5.28 0 10.56 0 16 0 C16 5.28 16 10.56 16 16 C10.72 16 5.44 16 0 16 C0 10.72 0 5.44 0 0 Z " fill="#FEFEFE" transform="translate(16,130)"/>
<path d="M0 0 C5.28 0 10.56 0 16 0 C16 5.28 16 10.56 16 16 C10.72 16 5.44 16 0 16 C0 10.72 0 5.44 0 0 Z " fill="#E5E5E5" transform="translate(0,130)"/>
<path d="M0 0 C5.28 0 10.56 0 16 0 C16 5.28 16 10.56 16 16 C10.72 16 5.44 16 0 16 C0 10.72 0 5.44 0 0 Z " fill="#E4E4E4" transform="translate(244,114)"/>
<path d="M0 0 C5.28 0 10.56 0 16 0 C16 5.28 16 10.56 16 16 C10.72 16 5.44 16 0 16 C0 10.72 0 5.44 0 0 Z " fill="#FEFEFE" transform="translate(228,114)"/>
<path d="M0 0 C5.28 0 10.56 0 16 0 C16 5.28 16 10.56 16 16 C10.72 16 5.44 16 0 16 C0 10.72 0 5.44 0 0 Z " fill="#FEFEFE" transform="translate(195,114)"/>
<path d="M0 0 C5.28 0 10.56 0 16 0 C16 5.28 16 10.56 16 16 C10.72 16 5.44 16 0 16 C0 10.72 0 5.44 0 0 Z " fill="#E5E5E5" transform="translate(49,114)"/>
<path d="M0 0 C5.28 0 10.56 0 16 0 C16 5.28 16 10.56 16 16 C10.72 16 5.44 16 0 16 C0 10.72 0 5.44 0 0 Z " fill="#FEFEFE" transform="translate(33,114)"/>
<path d="M0 0 C5.28 0 10.56 0 16 0 C16 5.28 16 10.56 16 16 C10.72 16 5.44 16 0 16 C0 10.72 0 5.44 0 0 Z " fill="#E5E5E5" transform="translate(16,114)"/>
<path d="M0 0 C5.28 0 10.56 0 16 0 C16 5.28 16 10.56 16 16 C10.72 16 5.44 16 0 16 C0 10.72 0 5.44 0 0 Z " fill="#FEFEFE" transform="translate(0,114)"/>
<path d="M0 0 C5.28 0 10.56 0 16 0 C16 5.28 16 10.56 16 16 C10.72 16 5.44 16 0 16 C0 10.72 0 5.44 0 0 Z " fill="#FEFEFE" transform="translate(244,98)"/>
<path d="M0 0 C5.28 0 10.56 0 16 0 C16 5.28 16 10.56 16 16 C10.72 16 5.44 16 0 16 C0 10.72 0 5.44 0 0 Z " fill="#E5E5E5" transform="translate(228,98)"/>
<path d="M0 0 C5.28 0 10.56 0 16 0 C16 5.28 16 10.56 16 16 C10.72 16 5.44 16 0 16 C0 10.72 0 5.44 0 0 Z " fill="#FEFEFE" transform="translate(49,98)"/>
<path d="M0 0 C5.28 0 10.56 0 16 0 C16 5.28 16 10.56 16 16 C10.72 16 5.44 16 0 16 C0 10.72 0 5.44 0 0 Z " fill="#E5E5E5" transform="translate(33,98)"/>
<path d="M0 0 C5.28 0 10.56 0 16 0 C16 5.28 16 10.56 16 16 C10.72 16 5.44 16 0 16 C0 10.72 0 5.44 0 0 Z " fill="#E5E5E5" transform="translate(0,98)"/>
<path d="M0 0 C5.28 0 10.56 0 16 0 C16 5.28 16 10.56 16 16 C10.72 16 5.44 16 0 16 C0 10.72 0 5.44 0 0 Z " fill="#FEFEFE" transform="translate(244,65)"/>
<path d="M0 0 C5.28 0 10.56 0 16 0 C16 5.28 16 10.56 16 16 C10.72 16 5.44 16 0 16 C0 10.72 0 5.44 0 0 Z " fill="#E5E5E5" transform="translate(228,65)"/>
<path d="M0 0 C5.28 0 10.56 0 16 0 C16 5.28 16 10.56 16 16 C10.72 16 5.44 16 0 16 C0 10.72 0 5.44 0 0 Z " fill="#E5E5E5" transform="translate(195,65)"/>
<path d="M0 0 C5.28 0 10.56 0 16 0 C16 5.28 16 10.56 16 16 C10.72 16 5.44 16 0 16 C0 10.72 0 5.44 0 0 Z " fill="#E5E5E5" transform="translate(33,65)"/>
<path d="M0 0 C5.28 0 10.56 0 16 0 C16 5.28 16 10.56 16 16 C10.72 16 5.44 16 0 16 C0 10.72 0 5.44 0 0 Z " fill="#FEFEFE" transform="translate(16,65)"/>
<path d="M0 0 C5.28 0 10.56 0 16 0 C16 5.28 16 10.56 16 16 C10.72 16 5.44 16 0 16 C0 10.72 0 5.44 0 0 Z " fill="#E5E5E5" transform="translate(0,65)"/>
<path d="M0 0 C5.28 0 10.56 0 16 0 C16 5.28 16 10.56 16 16 C10.72 16 5.44 16 0 16 C0 10.72 0 5.44 0 0 Z " fill="#E4E4E4" transform="translate(244,49)"/>
<path d="M0 0 C5.28 0 10.56 0 16 0 C16 5.28 16 10.56 16 16 C10.72 16 5.44 16 0 16 C0 10.72 0 5.44 0 0 Z " fill="#FEFEFE" transform="translate(228,49)"/>
<path d="M0 0 C5.28 0 10.56 0 16 0 C16 5.28 16 10.56 16 16 C10.72 16 5.44 16 0 16 C0 10.72 0 5.44 0 0 Z " fill="#FEFEFE" transform="translate(195,49)"/>
<path d="M0 0 C5.28 0 10.56 0 16 0 C16 5.28 16 10.56 16 16 C10.72 16 5.44 16 0 16 C0 10.72 0 5.44 0 0 Z " fill="#E5E5E5" transform="translate(179,49)"/>
<path d="M0 0 C5.28 0 10.56 0 16 0 C16 5.28 16 10.56 16 16 C10.72 16 5.44 16 0 16 C0 10.72 0 5.44 0 0 Z " fill="#FEFEFD" transform="translate(98,49)"/>
<path d="M0 0 C5.28 0 10.56 0 16 0 C16 5.28 16 10.56 16 16 C10.72 16 5.44 16 0 16 C0 10.72 0 5.44 0 0 Z " fill="#FEFEFE" transform="translate(65,49)"/>
<path d="M0 0 C5.28 0 10.56 0 16 0 C16 5.28 16 10.56 16 16 C10.72 16 5.44 16 0 16 C0 10.72 0 5.44 0 0 Z " fill="#E5E5E5" transform="translate(49,49)"/>
<path d="M0 0 C5.28 0 10.56 0 16 0 C16 5.28 16 10.56 16 16 C10.72 16 5.44 16 0 16 C0 10.72 0 5.44 0 0 Z " fill="#FEFEFE" transform="translate(0,49)"/>
<path d="M0 0 C5.28 0 10.56 0 16 0 C16 5.28 16 10.56 16 16 C10.72 16 5.44 16 0 16 C0 10.72 0 5.44 0 0 Z " fill="#FEFEFE" transform="translate(244,33)"/>
<path d="M0 0 C5.28 0 10.56 0 16 0 C16 5.28 16 10.56 16 16 C10.72 16 5.44 16 0 16 C0 10.72 0 5.44 0 0 Z " fill="#E5E5E5" transform="translate(195,33)"/>
<path d="M0 0 C5.28 0 10.56 0 16 0 C16 5.28 16 10.56 16 16 C10.72 16 5.44 16 0 16 C0 10.72 0 5.44 0 0 Z " fill="#FEFEFE" transform="translate(179,33)"/>
<path d="M0 0 C5.28 0 10.56 0 16 0 C16 5.28 16 10.56 16 16 C10.72 16 5.44 16 0 16 C0 10.72 0 5.44 0 0 Z " fill="#FEFEFE" transform="translate(114,33)"/>
<path d="M0 0 C5.28 0 10.56 0 16 0 C16 5.28 16 10.56 16 16 C10.72 16 5.44 16 0 16 C0 10.72 0 5.44 0 0 Z " fill="#E5E5E5" transform="translate(179,16)"/>
<path d="M0 0 C5.28 0 10.56 0 16 0 C16 5.28 16 10.56 16 16 C10.72 16 5.44 16 0 16 C0 10.72 0 5.44 0 0 Z " fill="#FEFEFE" transform="translate(130,16)"/>
<path d="M0 0 C5.28 0 10.56 0 16 0 C16 5.28 16 10.56 16 16 C10.72 16 5.44 16 0 16 C0 10.72 0 5.44 0 0 Z " fill="#E5E5E5" transform="translate(114,16)"/>
<path d="M0 0 C5.28 0 10.56 0 16 0 C16 5.28 16 10.56 16 16 C10.72 16 5.44 16 0 16 C0 10.72 0 5.44 0 0 Z " fill="#E5E5E5" transform="translate(49,16)"/>
<path d="M0 0 C5.28 0 10.56 0 16 0 C16 5.28 16 10.56 16 16 C10.72 16 5.44 16 0 16 C0 10.72 0 5.44 0 0 Z " fill="#FEFEFE" transform="translate(195,16)"/>
<path d="M0 0 C5.28 0 10.56 0 16 0 C16 5.28 16 10.56 16 16 C10.72 16 5.44 16 0 16 C0 10.72 0 5.44 0 0 Z " fill="#FEFEFE" transform="translate(65,16)"/>
<path d="M0 0 C5.28 0 10.56 0 16 0 C16 5.28 16 10.56 16 16 C10.72 16 5.44 16 0 16 C0 10.72 0 5.44 0 0 Z " fill="#FEFEFE" transform="translate(244,0)"/>
<path d="M0 0 C5.28 0 10.56 0 16 0 C16 5.28 16 10.56 16 16 C10.72 16 5.44 16 0 16 C0 10.72 0 5.44 0 0 Z " fill="#FEFEFE" transform="translate(211,0)"/>
<path d="M0 0 C5.28 0 10.56 0 16 0 C16 5.28 16 10.56 16 16 C10.72 16 5.44 16 0 16 C0 10.72 0 5.44 0 0 Z " fill="#E5E5E5" transform="translate(195,0)"/>
<path d="M0 0 C5.28 0 10.56 0 16 0 C16 5.28 16 10.56 16 16 C10.72 16 5.44 16 0 16 C0 10.72 0 5.44 0 0 Z " fill="#FEFEFE" transform="translate(179,0)"/>
<path d="M0 0 C5.28 0 10.56 0 16 0 C16 5.28 16 10.56 16 16 C10.72 16 5.44 16 0 16 C0 10.72 0 5.44 0 0 Z " fill="#E5E5E5" transform="translate(163,0)"/>
<path d="M0 0 C5.28 0 10.56 0 16 0 C16 5.28 16 10.56 16 16 C10.72 16 5.44 16 0 16 C0 10.72 0 5.44 0 0 Z " fill="#FEFEFE" transform="translate(146,0)"/>
<path d="M0 0 C5.28 0 10.56 0 16 0 C16 5.28 16 10.56 16 16 C10.72 16 5.44 16 0 16 C0 10.72 0 5.44 0 0 Z " fill="#E5E5E5" transform="translate(130,0)"/>
<path d="M0 0 C5.28 0 10.56 0 16 0 C16 5.28 16 10.56 16 16 C10.72 16 5.44 16 0 16 C0 10.72 0 5.44 0 0 Z " fill="#FEFEFE" transform="translate(114,0)"/>
<path d="M0 0 C5.28 0 10.56 0 16 0 C16 5.28 16 10.56 16 16 C10.72 16 5.44 16 0 16 C0 10.72 0 5.44 0 0 Z " fill="#E5E5E5" transform="translate(98,0)"/>
<path d="M0 0 C5.28 0 10.56 0 16 0 C16 5.28 16 10.56 16 16 C10.72 16 5.44 16 0 16 C0 10.72 0 5.44 0 0 Z " fill="#FEFEFE" transform="translate(81,0)"/>
<path d="M0 0 C5.28 0 10.56 0 16 0 C16 5.28 16 10.56 16 16 C10.72 16 5.44 16 0 16 C0 10.72 0 5.44 0 0 Z " fill="#E5E5E5" transform="translate(65,0)"/>
<path d="M0 0 C5.28 0 10.56 0 16 0 C16 5.28 16 10.56 16 16 C10.72 16 5.44 16 0 16 C0 10.72 0 5.44 0 0 Z " fill="#FEFEFE" transform="translate(49,0)"/>
<path d="M0 0 C5.28 0 10.56 0 16 0 C16 5.28 16 10.56 16 16 C10.72 16 5.44 16 0 16 C0 10.72 0 5.44 0 0 Z " fill="#E5E5E5" transform="translate(33,0)"/>
<path d="M0 0 C5.28 0 10.56 0 16 0 C16 5.28 16 10.56 16 16 C10.72 16 5.44 16 0 16 C0 10.72 0 5.44 0 0 Z " fill="#FEFEFE" transform="translate(16,0)"/>
<path d="M0 0 C5.28 0 10.56 0 16 0 C16 5.28 16 10.56 16 16 C10.72 16 5.44 16 0 16 C0 10.72 0 5.44 0 0 Z " fill="#E5E5E5" transform="translate(0,0)"/>
<path d="M0 0 C1.39456867 0.00574201 2.78910972 0.01875397 4.18359375 0.03515625 C6.63796875 0.05578125 9.09234375 0.07640625 11.62109375 0.09765625 C11.62109375 5.37765625 11.62109375 10.65765625 11.62109375 16.09765625 C6.34109375 16.09765625 1.06109375 16.09765625 -4.37890625 16.09765625 C-4.39953125 13.64328125 -4.42015625 11.18890625 -4.44140625 8.66015625 C-4.45051025 7.88615479 -4.45961426 7.11215332 -4.46899414 6.31469727 C-4.47615538 4.57543908 -4.42915327 2.83620321 -4.37890625 1.09765625 C-3.37890625 0.09765625 -3.37890625 0.09765625 0 0 Z " fill="#FDFDFD" transform="translate(85.37890625,227.90234375)"/>
<path d="M0 0 C5.28 0 10.56 0 16 0 C16 5.28 16 10.56 16 16 C13.545625 16.020625 11.09125 16.04125 8.5625 16.0625 C7.78849854 16.071604 7.01449707 16.08070801 6.21704102 16.09008789 C4.47778283 16.09724913 2.73854696 16.05024702 1 16 C0 15 0 15 -0.09765625 11.62109375 C-0.09191424 10.22652508 -0.07890228 8.83198403 -0.0625 7.4375 C-0.041875 4.983125 -0.02125 2.52875 0 0 Z " fill="#FDFDFD" transform="translate(81,195)"/>
<path d="M0 0 C5.28 0 10.56 0 16 0 C16 5.28 16 10.56 16 16 C13.545625 16.020625 11.09125 16.04125 8.5625 16.0625 C7.78849854 16.071604 7.01449707 16.08070801 6.21704102 16.09008789 C4.47778283 16.09724913 2.73854696 16.05024702 1 16 C0 15 0 15 -0.09765625 11.62109375 C-0.09191424 10.22652508 -0.07890228 8.83198403 -0.0625 7.4375 C-0.041875 4.983125 -0.02125 2.52875 0 0 Z " fill="#FEFEFE" transform="translate(211,130)"/>
<path d="M0 0 C5.28 0 10.56 0 16 0 C16.020625 2.454375 16.04125 4.90875 16.0625 7.4375 C16.071604 8.21150146 16.08070801 8.98550293 16.09008789 9.78295898 C16.09724913 11.52221717 16.05024702 13.26145304 16 15 C15 16 15 16 11.62109375 16.09765625 C10.22652508 16.09191424 8.83198403 16.07890228 7.4375 16.0625 C4.983125 16.041875 2.52875 16.02125 0 16 C0 10.72 0 5.44 0 0 Z " fill="#E5E5E5" transform="translate(33,130)"/>
<path d="M0 0 C0 5.28 0 10.56 0 16 C-5.28 16 -10.56 16 -16 16 C-16 11.71 -16 7.42 -16 3 C-17.32 2.67 -18.64 2.34 -20 2 C-13.3238035 -0.48416614 -7.08920074 -0.14616909 0 0 Z " fill="#E3E4E4" transform="translate(195,114)"/>
<path d="M0 0 C1.39456867 0.00574201 2.78910972 0.01875397 4.18359375 0.03515625 C6.63796875 0.05578125 9.09234375 0.07640625 11.62109375 0.09765625 C11.62109375 5.37765625 11.62109375 10.65765625 11.62109375 16.09765625 C6.34109375 16.09765625 1.06109375 16.09765625 -4.37890625 16.09765625 C-4.39953125 13.64328125 -4.42015625 11.18890625 -4.44140625 8.66015625 C-4.45051025 7.88615479 -4.45961426 7.11215332 -4.46899414 6.31469727 C-4.47615538 4.57543908 -4.42915327 2.83620321 -4.37890625 1.09765625 C-3.37890625 0.09765625 -3.37890625 0.09765625 0 0 Z " fill="#E5E5E5" transform="translate(199.37890625,97.90234375)"/>
<path d="M0 0 C3.6815625 -0.0309375 3.6815625 -0.0309375 7.4375 -0.0625 C8.21150146 -0.071604 8.98550293 -0.08070801 9.78295898 -0.09008789 C11.52221717 -0.09724913 13.26145304 -0.05024702 15 0 C16 1 16 1 16.09765625 4.37890625 C16.09191424 5.77347492 16.07890228 7.16801597 16.0625 8.5625 C16.041875 11.016875 16.02125 13.47125 16 16 C10.72 16 5.44 16 0 16 C0 10.72 0 5.44 0 0 Z " fill="#FEFEFE" transform="translate(228,16)"/>
<path d="M0 0 C5.28 0 10.56 0 16 0 C16.125 13.75 16.125 13.75 15 16 C10.05 16 5.1 16 0 16 C0 10.72 0 5.44 0 0 Z " fill="#E4E4E4" transform="translate(163,195)"/>
<path d="M0 0 C5.28 0 10.56 0 16 0 C16 5.28 16 10.56 16 16 C2.25 16.125 2.25 16.125 0 15 C0 10.05 0 5.1 0 0 Z " fill="#E5E5E5" transform="translate(98,33)"/>
<path d="M0 0 C5.28 0 10.56 0 16 0 C16.020625 2.454375 16.04125 4.90875 16.0625 7.4375 C16.071604 8.21150146 16.08070801 8.98550293 16.09008789 9.78295898 C16.09724913 11.52221717 16.05024702 13.26145304 16 15 C15 16 15 16 11.875 16.1328125 C10.59625 16.13023438 9.3175 16.12765625 8 16.125 C6.72125 16.12757812 5.4425 16.13015625 4.125 16.1328125 C1 16 1 16 0 15 C-0.07320163 12.4672235 -0.09227569 9.96896082 -0.0625 7.4375 C-0.041875 4.983125 -0.02125 2.52875 0 0 Z " fill="#E5E5E5" transform="translate(33,33)"/>
<path d="M0 0 C0 5.28 0 10.56 0 16 C-5.28 16 -10.56 16 -16 16 C-16 11.05 -16 6.1 -16 1 C-11.53794887 -1.23102556 -4.78092876 -0.04346299 0 0 Z " fill="#FDFDFD" transform="translate(114,16)"/>
<path d="M0 0 C0 5.28 0 10.56 0 16 C-5.28 16 -10.56 16 -16 16 C-16 11.05 -16 6.1 -16 1 C-11.53794887 -1.23102556 -4.78092876 -0.04346299 0 0 Z " fill="#FEFEFE" transform="translate(49,16)"/>
<path d="M0 0 C5.28 0 10.56 0 16 0 C16 5.28 16 10.56 16 16 C3.375 16.125 3.375 16.125 0 15 C0 10.05 0 5.1 0 0 Z " fill="#E5E5E5" transform="translate(33,163)"/>
<path d="M0 0 C4.95 0 9.9 0 15 0 C15.020625 2.454375 15.04125 4.90875 15.0625 7.4375 C15.071604 8.21150146 15.08070801 8.98550293 15.09008789 9.78295898 C15.09724913 11.52221717 15.05024702 13.26145304 15 15 C14 16 14 16 10.62109375 16.09765625 C9.22652923 16.09098369 7.83198257 16.07902532 6.4375 16.0625 C5.72658203 16.05798828 5.01566406 16.05347656 4.28320312 16.04882812 C2.52209987 16.03700864 0.76103964 16.01907263 -1 16 C-1.02701408 13.89590361 -1.04640223 11.79170822 -1.0625 9.6875 C-1.07410156 8.51574219 -1.08570313 7.34398437 -1.09765625 6.13671875 C-1 3 -1 3 0 0 Z " fill="#FEFEFE" transform="translate(147,33)"/>
<path d="M0 0 C4.95 0 9.9 0 15 0 C15.020625 2.454375 15.04125 4.90875 15.0625 7.4375 C15.071604 8.21150146 15.08070801 8.98550293 15.09008789 9.78295898 C15.09724913 11.52221717 15.05024702 13.26145304 15 15 C14 16 14 16 10.875 16.1328125 C9.59625 16.13023438 8.3175 16.12765625 7 16.125 C5.72125 16.12757812 4.4425 16.13015625 3.125 16.1328125 C0 16 0 16 -1 15 C-1.0991757 12.85605481 -1.1297015 10.70873268 -1.125 8.5625 C-1.12757812 7.38816406 -1.13015625 6.21382812 -1.1328125 5.00390625 C-1 2 -1 2 0 0 Z " fill="#FEFEFE" transform="translate(82,33)"/>
<path d="M0 0 C5.28 0 10.56 0 16 0 C16.125 11.5 16.125 11.5 15 16 C10.05 16 5.1 16 0 16 C0 10.72 0 5.44 0 0 Z " fill="#FEFEFE" transform="translate(163,16)"/>
<path d="M0 0 C1.60294922 0.04060547 1.60294922 0.04060547 3.23828125 0.08203125 C4.04652344 0.11683594 4.85476562 0.15164062 5.6875 0.1875 C5.71435095 2.66673801 5.73426547 5.1456884 5.75 7.625 C5.75837891 8.33205078 5.76675781 9.03910156 5.77539062 9.76757812 C5.78403588 11.57443559 5.73970011 13.38137603 5.6875 15.1875 C4.6875 16.1875 4.6875 16.1875 1.30859375 16.28515625 C-0.08597077 16.27848369 -1.48051743 16.26652532 -2.875 16.25 C-3.58591797 16.24548828 -4.29683594 16.24097656 -5.02929688 16.23632812 C-6.79040013 16.22450864 -8.55146036 16.20657263 -10.3125 16.1875 C-10.6425 11.8975 -10.9725 7.6075 -11.3125 3.1875 C-6.39457256 0.23674353 -5.33280718 -0.17580683 0 0 Z " fill="#FCFDFD" transform="translate(108.3125,80.8125)"/>
<path d="M0 0 C4.95 0 9.9 0 15 0 C15 5.28 15 10.56 15 16 C9.72 16 4.44 16 -1 16 C-0.67 10.72 -0.34 5.44 0 0 Z " fill="#FEFEFE" transform="translate(17,163)"/>
<path d="M0 0 C5.28 0 10.56 0 16 0 C16 5.28 16 10.56 16 16 C10.72 15.67 5.44 15.34 0 15 C0 10.05 0 5.1 0 0 Z " fill="#E4E4E4" transform="translate(163,33)"/>
<path d="M0 0 C4.95 0 9.9 0 15 0 C15 5.28 15 10.56 15 16 C10.05 16 5.1 16 0 16 C-1.7317728 10.8046816 -0.48096748 5.39752399 0 0 Z " fill="#FEFEFE" transform="translate(17,228)"/>
<path d="M0 0 C5.28 0 10.56 0 16 0 C16 4.95 16 9.9 16 15 C12.3184375 15.2784375 12.3184375 15.2784375 8.5625 15.5625 C7.78849854 15.62381104 7.01449707 15.68512207 6.21704102 15.74829102 C4.48038342 15.87169543 2.73991955 15.9376445 1 16 C0 15 0 15 -0.09765625 11.62109375 C-0.09191424 10.22652508 -0.07890228 8.83198403 -0.0625 7.4375 C-0.041875 4.983125 -0.02125 2.52875 0 0 Z " fill="#FEFEFE" transform="translate(16,33)"/>
<path d="M0 0 C4.95 0 9.9 0 15 0 C15 5.28 15 10.56 15 16 C9.72 16 4.44 16 -1 16 C-0.67 10.72 -0.34 5.44 0 0 Z " fill="#FEFEFE" transform="translate(212,228)"/>
<path d="M0 0 C4.95 0 9.9 0 15 0 C15 5.28 15 10.56 15 16 C10.05 16 5.1 16 0 16 C-2.19896869 11.60206262 -0.37969311 4.64069352 0 0 Z " fill="#FEFEFE" transform="translate(212,195)"/>
<path d="M0 0 C4.95 0 9.9 0 15 0 C15 5.28 15 10.56 15 16 C10.05 16 5.1 16 0 16 C-2.19896869 11.60206262 -0.37969311 4.64069352 0 0 Z " fill="#FEFEFE" transform="translate(212,163)"/>
<path d="M0 0 C0.02692484 2.29160319 0.04636124 4.58329546 0.0625 6.875 C0.07410156 8.15117187 0.08570313 9.42734375 0.09765625 10.7421875 C0 14 0 14 -1 16 C-5.95 16 -10.9 16 -16 16 C-16 11.05 -16 6.1 -16 1 C-3.375 0 -3.375 0 0 0 Z " fill="#FEFEFE" transform="translate(244,146)"/>
<path d="M0 0 C0 4.95 0 9.9 0 15 C-5.28 15 -10.56 15 -16 15 C-16 10.05 -16 5.1 -16 0 C-12.596875 -0.2784375 -12.596875 -0.2784375 -9.125 -0.5625 C-7.21074219 -0.71912109 -7.21074219 -0.71912109 -5.2578125 -0.87890625 C-2 -1 -2 -1 0 0 Z " fill="#FEFEFE" transform="translate(211,82)"/>
<path d="M0 0 C5.28 0 10.56 0 16 0 C16 4.95 16 9.9 16 15 C10.72 15 5.44 15 0 15 C-2.10659067 10.78681867 -0.39452679 4.47130356 0 0 Z " fill="#E5E4E5" transform="translate(179,82)"/>
<path d="M0 0 C5.28 0 10.56 0 16 0 C15.67 5.28 15.34 10.56 15 16 C10.05 16 5.1 16 0 16 C0 10.72 0 5.44 0 0 Z " fill="#FEFEFE" transform="translate(212,65)"/>
<path d="M0 0 C4.95 0 9.9 0 15 0 C15 5.28 15 10.56 15 16 C10.05 16 5.1 16 0 16 C0 10.72 0 5.44 0 0 Z " fill="#E5E5E5" transform="translate(147,244)"/>
<path d="M0 0 C4.95 0 9.9 0 15 0 C15 5.28 15 10.56 15 16 C10.05 16 5.1 16 0 16 C0 10.72 0 5.44 0 0 Z " fill="#FEFEFE" transform="translate(147,228)"/>
<path d="M0 0 C5.28 0 10.56 0 16 0 C16 4.95 16 9.9 16 15 C10.72 15 5.44 15 0 15 C0 10.05 0 5.1 0 0 Z " fill="#E4E4E4" transform="translate(244,212)"/>
<path d="M0 0 C5.28 0 10.56 0 16 0 C16 4.95 16 9.9 16 15 C10.72 15 5.44 15 0 15 C0 10.05 0 5.1 0 0 Z " fill="#FEFEFE" transform="translate(228,212)"/>
<path d="M0 0 C5.28 0 10.56 0 16 0 C16 4.95 16 9.9 16 15 C10.72 15 5.44 15 0 15 C0 10.05 0 5.1 0 0 Z " fill="#FEFEFE" transform="translate(195,212)"/>
<path d="M0 0 C5.28 0 10.56 0 16 0 C16 4.95 16 9.9 16 15 C10.72 15 5.44 15 0 15 C0 10.05 0 5.1 0 0 Z " fill="#FEFEFE" transform="translate(163,212)"/>
<path d="M0 0 C5.28 0 10.56 0 16 0 C16 4.95 16 9.9 16 15 C10.72 15 5.44 15 0 15 C0 10.05 0 5.1 0 0 Z " fill="#FEFEFE" transform="translate(130,212)"/>
<path d="M0 0 C5.28 0 10.56 0 16 0 C16 4.95 16 9.9 16 15 C10.72 15 5.44 15 0 15 C0 10.05 0 5.1 0 0 Z " fill="#E4E4E4" transform="translate(114,212)"/>
<path d="M0 0 C5.28 0 10.56 0 16 0 C16 4.95 16 9.9 16 15 C10.72 15 5.44 15 0 15 C0 10.05 0 5.1 0 0 Z " fill="#FEFEFE" transform="translate(98,212)"/>
<path d="M0 0 C5.28 0 10.56 0 16 0 C16 4.95 16 9.9 16 15 C10.72 15 5.44 15 0 15 C0 10.05 0 5.1 0 0 Z " fill="#E5E5E5" transform="translate(49,212)"/>
<path d="M0 0 C5.28 0 10.56 0 16 0 C16.09765625 10.83984375 16.09765625 10.83984375 16 14 C14.01783097 15.98216903 10.16679941 15.41050924 7.4375 15.5625 C4.983125 15.706875 2.52875 15.85125 0 16 C0 10.72 0 5.44 0 0 Z " fill="#FEFEFE" transform="translate(33,212)"/>
<path d="M0 0 C0.02685095 2.47923801 0.04676547 4.9581884 0.0625 7.4375 C0.07087891 8.14455078 0.07925781 8.85160156 0.08789062 9.58007812 C0.09653588 11.38693559 0.05220011 13.19387603 0 15 C-1 16 -1 16 -4.37890625 16.09765625 C-5.77347492 16.09191424 -7.16801597 16.07890228 -8.5625 16.0625 C-11.016875 16.041875 -13.47125 16.02125 -16 16 C-16 11.05 -16 6.1 -16 1 C-13.545625 0.835 -11.09125 0.67 -8.5625 0.5 C-7.78849854 0.44779297 -7.01449707 0.39558594 -6.21704102 0.34179688 C-1.11111111 0 -1.11111111 0 0 0 Z " fill="#FEFEFE" transform="translate(49,146)"/>
<path d="M0 0 C5.28 0 10.56 0 16 0 C16 4.95 16 9.9 16 15 C10.72 15 5.44 15 0 15 C0 10.05 0 5.1 0 0 Z " fill="#FEFEFE" transform="translate(0,147)"/>
<path d="M0 0 C4.95 0 9.9 0 15 0 C15 5.28 15 10.56 15 16 C10.05 16 5.1 16 0 16 C0 10.72 0 5.44 0 0 Z " fill="#E4E4E4" transform="translate(212,114)"/>
<path d="M0 0 C4.95 0 9.9 0 15 0 C15 5.28 15 10.56 15 16 C10.05 16 5.1 16 0 16 C0 10.72 0 5.44 0 0 Z " fill="#FEFEFE" transform="translate(212,98)"/>
<path d="M0 0 C5.28 0 10.56 0 16 0 C16 4.95 16 9.9 16 15 C10.72 15 5.44 15 0 15 C0 10.05 0 5.1 0 0 Z " fill="#E4E4E4" transform="translate(244,82)"/>
<path d="M0 0 C5.28 0 10.56 0 16 0 C16 4.95 16 9.9 16 15 C10.72 15 5.44 15 0 15 C0 10.05 0 5.1 0 0 Z " fill="#E4E4E4" transform="translate(49,82)"/>
<path d="M0 0 C5.28 0 10.56 0 16 0 C16 4.95 16 9.9 16 15 C10.72 15 5.44 15 0 15 C0 10.05 0 5.1 0 0 Z " fill="#FEFEFE" transform="translate(0,82)"/>
<path d="M0 0 C1.4883163 0.00574353 2.97660671 0.01875734 4.46484375 0.03515625 C7.08421875 0.05578125 9.70359375 0.07640625 12.40234375 0.09765625 C12.07234375 5.37765625 11.74234375 10.65765625 11.40234375 16.09765625 C0.15234375 16.23158482 0.15234375 16.23158482 -3.59765625 15.09765625 C-3.79156354 12.7856847 -3.97761992 10.47305335 -4.16015625 8.16015625 C-4.31677734 6.22849609 -4.31677734 6.22849609 -4.4765625 4.2578125 C-4.51652344 3.21496094 -4.55648437 2.17210937 -4.59765625 1.09765625 C-3.59765625 0.09765625 -3.59765625 0.09765625 0 0 Z " fill="#FEFEFE" transform="translate(215.59765625,32.90234375)"/>
<path d="M0 0 C5.28 0 10.56 0 16 0 C16 4.95 16 9.9 16 15 C10.72 15 5.44 15 0 15 C0 10.05 0 5.1 0 0 Z " fill="#FEFEFE" transform="translate(0,17)"/>
<path d="M0 0 C1.39456867 0.00574201 2.78910972 0.01875397 4.18359375 0.03515625 C6.63796875 0.05578125 9.09234375 0.07640625 11.62109375 0.09765625 C11.62109375 5.04765625 11.62109375 9.99765625 11.62109375 15.09765625 C6.34109375 15.09765625 1.06109375 15.09765625 -4.37890625 15.09765625 C-4.4765625 4.2578125 -4.4765625 4.2578125 -4.37890625 1.09765625 C-3.37890625 0.09765625 -3.37890625 0.09765625 0 0 Z " fill="#FEFEFE" transform="translate(69.37890625,211.90234375)"/>
<path d="M0 0 C1.39456867 0.00574201 2.78910972 0.01875397 4.18359375 0.03515625 C6.63796875 0.05578125 9.09234375 0.07640625 11.62109375 0.09765625 C11.62109375 5.04765625 11.62109375 9.99765625 11.62109375 15.09765625 C6.34109375 15.09765625 1.06109375 15.09765625 -4.37890625 15.09765625 C-4.4765625 4.2578125 -4.4765625 4.2578125 -4.37890625 1.09765625 C-3.37890625 0.09765625 -3.37890625 0.09765625 0 0 Z " fill="#E4E4E4" transform="translate(20.37890625,81.90234375)"/>
<path d="M0 0 C3.61328125 0.03255208 7.2265625 0.06510417 10.83984375 0.09765625 C10.83984375 5.37765625 10.83984375 10.65765625 10.83984375 16.09765625 C5.88984375 16.09765625 0.93984375 16.09765625 -4.16015625 16.09765625 C-4.18078125 13.64328125 -4.20140625 11.18890625 -4.22265625 8.66015625 C-4.23176025 7.88615479 -4.24086426 7.11215332 -4.25024414 6.31469727 C-4.25740538 4.57543908 -4.21040327 2.83620321 -4.16015625 1.09765625 C-3.16015625 0.09765625 -3.16015625 0.09765625 0 0 Z " fill="#E5E5E5" transform="translate(216.16015625,15.90234375)"/>
<path d="M0 0 C4.95 0 9.9 0 15 0 C15 5.28 15 10.56 15 16 C3.375 16.125 3.375 16.125 0 15 C0 10.05 0 5.1 0 0 Z " fill="#FEFEFE" transform="translate(17,98)"/>
<path d="M0 0 C0.33 0 0.66 0 1 0 C1.66 8.91 2.32 17.82 3 27 C-1.95 27 -6.9 27 -12 27 C-12 21.72 -12 16.44 -12 11 C-8.04 11 -4.08 11 0 11 C0 7.37 0 3.74 0 0 Z " fill="#DFE0E1" transform="translate(110,184)"/>
<path d="M0 0 C1.39456452 0.00667256 2.78911118 0.01863093 4.18359375 0.03515625 C4.89451172 0.03966797 5.60542969 0.04417969 6.33789062 0.04882812 C8.09899388 0.06064761 9.86005411 0.07858362 11.62109375 0.09765625 C11.62109375 2.73765625 11.62109375 5.37765625 11.62109375 8.09765625 C10.96109375 8.09765625 10.30109375 8.09765625 9.62109375 8.09765625 C9.62109375 8.75765625 9.62109375 9.41765625 9.62109375 10.09765625 C10.28109375 10.09765625 10.94109375 10.09765625 11.62109375 10.09765625 C11.62109375 11.74765625 11.62109375 13.39765625 11.62109375 15.09765625 C6.34109375 15.09765625 1.06109375 15.09765625 -4.37890625 15.09765625 C-4.4765625 4.2578125 -4.4765625 4.2578125 -4.37890625 1.09765625 C-3.37890625 0.09765625 -3.37890625 0.09765625 0 0 Z " fill="#FEFEFE" transform="translate(69.37890625,81.90234375)"/>
<path d="M0 0 C2.47960136 0.14024219 4.95852402 0.2869185 7.4375 0.4375 C8.14455078 0.47681641 8.85160156 0.51613281 9.58007812 0.55664062 C14.88671875 0.88671875 14.88671875 0.88671875 16 2 C16.07313567 4.53049402 16.09247527 7.03304837 16.0625 9.5625 C16.05798828 10.27341797 16.05347656 10.98433594 16.04882812 11.71679688 C16.03700864 13.47790013 16.01907263 15.23896036 16 17 C11.71 17 7.42 17 3 17 C3 14.36 3 11.72 3 9 C0.03 8.505 0.03 8.505 -3 8 C-2.37063561 5.06296616 -1.37579827 2.66211372 0 0 Z " fill="#E2E2E3" transform="translate(163,64)"/>
<path d="M0 0 C5.28 0 10.56 0 16 0 C15.67 4.95 15.34 9.9 15 15 C10.05 15 5.1 15 0 15 C0 10.05 0 5.1 0 0 Z " fill="#FEFEFE" transform="translate(228,82)"/>
<path d="M0 0 C4.95 0 9.9 0 15 0 C15 4.95 15 9.9 15 15 C9.72 15 4.44 15 -1 15 C-0.67 10.05 -0.34 5.1 0 0 Z " fill="#E4E4E4" transform="translate(17,147)"/>
<path d="M0 0 C4.95 0 9.9 0 15 0 C15 4.95 15 9.9 15 15 C10.05 15 5.1 15 0 15 C0 10.05 0 5.1 0 0 Z " fill="#E4E4E4" transform="translate(147,212)"/>
<path d="M0 0 C4.95 0 9.9 0 15 0 C15 4.95 15 9.9 15 15 C10.05 15 5.1 15 0 15 C0 10.05 0 5.1 0 0 Z " fill="#E4E4E4" transform="translate(82,212)"/>
<path d="M0 0 C4.95 0 9.9 0 15 0 C15 4.95 15 9.9 15 15 C10.05 15 5.1 15 0 15 C0 10.05 0 5.1 0 0 Z " fill="#E4E4E4" transform="translate(17,212)"/>
<path d="M0 0 C4.95 0 9.9 0 15 0 C15 4.95 15 9.9 15 15 C10.05 15 5.1 15 0 15 C0 10.05 0 5.1 0 0 Z " fill="#E4E4E4" transform="translate(212,147)"/>
<path d="M0 0 C4.95 0 9.9 0 15 0 C15 4.95 15 9.9 15 15 C10.05 15 5.1 15 0 15 C0 10.05 0 5.1 0 0 Z " fill="#E4E4E4" transform="translate(212,82)"/>
<path d="M0 0 C4.95 0 9.9 0 15 0 C15 4.95 15 9.9 15 15 C10.05 15 5.1 15 0 15 C0 10.05 0 5.1 0 0 Z " fill="#E4E4E4" transform="translate(147,17)"/>
<path d="M0 0 C4.95 0 9.9 0 15 0 C15 4.95 15 9.9 15 15 C10.05 15 5.1 15 0 15 C0 10.05 0 5.1 0 0 Z " fill="#E4E4E4" transform="translate(82,17)"/>
<path d="M0 0 C4.95 0 9.9 0 15 0 C15 4.95 15 9.9 15 15 C10.05 15 5.1 15 0 15 C0 10.05 0 5.1 0 0 Z " fill="#E4E4E4" transform="translate(17,17)"/>
<path d="M0 0 C5.28 0 10.56 0 16 0 C16 5.28 16 10.56 16 16 C11.71 16 7.42 16 3 16 C2.8046875 13.16796875 2.609375 10.3359375 2.4140625 7.50390625 C2.27742187 6.67761719 2.14078125 5.85132812 2 5 C1.34 4.67 0.68 4.34 0 4 C0 2.68 0 1.36 0 0 Z " fill="#FCFDFE" transform="translate(179,98)"/>
<path d="M0 0 C3.3 0 6.6 0 10 0 C10 5.28 10 10.56 10 16 C4.72 16 -0.56 16 -6 16 C-6.09765625 9.06640625 -6.09765625 9.06640625 -6 7 C-5 6 -5 6 -2.4375 5.9375 C-1.2309375 5.9684375 -1.2309375 5.9684375 0 6 C0 4.02 0 2.04 0 0 Z " fill="#FCFCFD" transform="translate(152,195)"/>
<path d="M0 0 C4.60209225 -0.17700355 6.78370866 -0.10814567 11 2 C11 6.62 11 11.24 11 16 C6.05 16 1.1 16 -4 16 C-4 12.37 -4 8.74 -4 5 C-2.68 4.34 -1.36 3.68 0 3 C0 2.01 0 1.02 0 0 Z " fill="#FAFBFC" transform="translate(151,97)"/>
<path d="M0 0 C3 1.5 3 1.5 5 3 C4.01 3.33 3.02 3.66 2 4 C2 7.3 2 10.6 2 14 C-1.96 14 -5.92 14 -10 14 C-10.33 14.99 -10.66 15.98 -11 17 C-11.433125 15.824375 -11.433125 15.824375 -11.875 14.625 C-12.84912254 11.90328368 -12.84912254 11.90328368 -15 10 C-15 6.23887874 -13.99259265 4.99186998 -11.4375 2.1875 C-7.59069752 -0.74383746 -4.7276973 -0.60034251 0 0 Z " fill="#E1E3E5" transform="translate(144,67)"/>
<path d="M0 0 C0.33 1.32 0.66 2.64 1 4 C1.99 3.67 2.98 3.34 4 3 C4.66 3.33 5.32 3.66 6 4 C6 4.99 6 5.98 6 7 C7.65 7 9.3 7 11 7 C11 7.33 11 7.66 11 8 C9.02 8.33 7.04 8.66 5 9 C5.33 11.97 5.66 14.94 6 18 C-0.04774291 17.53478901 -4.55563356 16.66426443 -10 14 C-10 10.7 -10 7.4 -10 4 C-6.7 4 -3.4 4 0 4 C0 2.68 0 1.36 0 0 Z " fill="#F9FBFC" transform="translate(124,94)"/>
<path d="M0 0 C0.12375 0.639375 0.2475 1.27875 0.375 1.9375 C0.58125 2.618125 0.7875 3.29875 1 4 C1.66 4.33 2.32 4.66 3 5 C2.34 5 1.68 5 1 5 C1 5.99 1 6.98 1 8 C3.97 8 6.94 8 10 8 C10 13.28 10 18.56 10 24 C6.7 24 3.4 24 0 24 C0 25.98 0 27.96 0 30 C-0.33 30 -0.66 30 -1 30 C-1.02909769 25.93751511 -1.04683174 21.87505714 -1.0625 17.8125 C-1.07087891 16.66201172 -1.07925781 15.51152344 -1.08789062 14.32617188 C-1.09111328 13.21435547 -1.09433594 12.10253906 -1.09765625 10.95703125 C-1.10289307 9.93585205 -1.10812988 8.91467285 -1.11352539 7.86254883 C-1.00519467 5.13098384 -0.61706868 2.65830626 0 0 Z " fill="#DBDCDF" transform="translate(152,171)"/>
<path d="M0 0 C3.96 0 7.92 0 12 0 C12 5.28 12 10.56 12 16 C8.04 16 4.08 16 0 16 C0 10.72 0 5.44 0 0 Z " fill="#FEFEFE" transform="translate(98,179)"/>
<path d="M0 0 C0.66 0.33 1.32 0.66 2 1 C2 1.66 2 2.32 2 3 C16.19 3 30.38 3 45 3 C45 3.33 45 3.66 45 4 C35.1 4 25.2 4 15 4 C15 8.29 15 12.58 15 17 C13.30729167 15.50260417 11.61458333 14.00520833 9.921875 12.5078125 C8.02581254 11.0202513 6.18709995 9.99677564 4 9 C3.566875 9.495 3.13375 9.99 2.6875 10.5 C1 12 1 12 -2 12 C-2.17835515 7.45194365 -1.99785435 4.1205746 0 0 Z " fill="#F3F5F6" transform="translate(164,78)"/>
<path d="M0 0 C0 4.29 0 8.58 0 13 C-3.3 13 -6.6 13 -10 13 C-9.67 11.35 -9.34 9.7 -9 8 C-13.455 7.01 -13.455 7.01 -18 6 C-18 5.34 -18 4.68 -18 4 C-17.34 4 -16.68 4 -16 4 C-16 3.01 -16 2.02 -16 1 C-14.08351538 0.83125293 -12.16680367 0.66508357 -10.25 0.5 C-8.64898437 0.36078125 -8.64898437 0.36078125 -7.015625 0.21875 C-4.6820782 0.04947717 -2.33967818 0 0 0 Z " fill="#F7F8F9" transform="translate(179,117)"/>
<path d="M0 0 C5.28 0 10.56 0 16 0 C16.33 3.96 16.66 7.92 17 12 C16.01 12 15.02 12 14 12 C13.360625 11.319375 12.72125 10.63875 12.0625 9.9375 C11.381875 9.298125 10.70125 8.65875 10 8 C7.01736939 8.18641441 4.61292041 9.60022121 2 11 C0.80712589 7.12315913 0 4.08378077 0 0 Z " fill="#DFE0E3" transform="translate(146,49)"/>
<path d="M0 0 C0.33 0.66 0.66 1.32 1 2 C2.98 2 4.96 2 7 2 C7 7.28 7 12.56 7 18 C4.03 18 1.06 18 -2 18 C-2.054138 15.75026553 -2.09285491 13.50015617 -2.125 11.25 C-2.14820313 9.99703125 -2.17140625 8.7440625 -2.1953125 7.453125 C-2.01537302 4.27179508 -1.68998582 2.63478104 0 0 Z " fill="#FAFBFB" transform="translate(155,161)"/>
<path d="M0 0 C0 2.97 0 5.94 0 9 C-5.28 9 -10.56 9 -16 9 C-16 7.35 -16 5.7 -16 4 C-17.32 3.67 -18.64 3.34 -20 3 C-17.41747107 2.49550598 -14.83411297 1.99625699 -12.25 1.5 C-11.52039063 1.35691406 -10.79078125 1.21382812 -10.0390625 1.06640625 C-6.60656468 0.41111121 -3.50830509 0 0 0 Z " fill="#DFE0E2" transform="translate(146,202)"/>
<path d="M0 0 C5.51313046 1.37828262 7.90219533 4.35329299 11 9 C10.625 12.1875 10.625 12.1875 10 15 C6.7 15 3.4 15 0 15 C0 10.05 0 5.1 0 0 Z " fill="#E0E1E4" transform="translate(114,82)"/>
<path d="M0 0 C4.95 0 9.9 0 15 0 C15.33 3.3 15.66 6.6 16 10 C10.59908226 8.83672541 5.29435341 7.57704144 0 6 C0 4.02 0 2.04 0 0 Z " fill="#DFE0E3" transform="translate(98,98)"/>
<path d="M0 0 C4.42857143 5.14285714 4.42857143 5.14285714 5 9 C3.35 9 1.7 9 0 9 C-0.33 8.01 -0.66 7.02 -1 6 C-5.29 6 -9.58 6 -14 6 C-14.99 8.64 -15.98 11.28 -17 14 C-17.33 14 -17.66 14 -18 14 C-18 10.04 -18 6.08 -18 2 C-12.06 2 -6.12 2 0 2 C0 1.34 0 0.68 0 0 Z " fill="#E2E4E7" transform="translate(116,63)"/>
<path d="M0 0 C2 2 2 2 2.1953125 5.6953125 C2.182009 7.17200108 2.15814835 8.64862358 2.125 10.125 C2.11597656 10.87910156 2.10695312 11.63320312 2.09765625 12.41015625 C2.0740687 14.27357254 2.03819719 16.13682593 2 18 C0.02 18 -1.96 18 -4 18 C-5.72251754 13.9154674 -4.07280563 10.63026304 -2.5625 6.75 C-2.31951172 6.1003125 -2.07652344 5.450625 -1.82617188 4.78125 C-1.22714006 3.18383183 -0.61485679 1.59139406 0 0 Z " fill="#DEDFE2" transform="translate(160,144)"/>
<path d="M0 0 C0.33 0 0.66 0 1 0 C1 3.96 1 7.92 1 12 C-3.95 12 -8.9 12 -14 12 C-14 11.01 -14 10.02 -14 9 C-11.21176345 7.9673198 -10.1322726 7.95490707 -7.25 8.9375 C-6.5075 9.288125 -5.765 9.63875 -5 10 C-4.9175 9.278125 -4.835 8.55625 -4.75 7.8125 C-3.8481223 4.43045861 -2.34359564 2.56330774 0 0 Z " fill="#D9DDE2" transform="translate(96,85)"/>
<path d="M0 0 C0.33 0 0.66 0 1 0 C1 1.65 1 3.3 1 5 C0.34 5 -0.32 5 -1 5 C-1 6.32 -1 7.64 -1 9 C-3.40060479 11.40060479 -4.6943717 12.1560098 -8 13 C-11.07200943 12.57734098 -14.01875377 11.84436168 -17 11 C-16.34 10.67 -15.68 10.34 -15 10 C-15 8.35 -15 6.7 -15 5 C-10.71 5.99 -6.42 6.98 -2 8 C-1.855625 6.865625 -1.71125 5.73125 -1.5625 4.5625 C-1 1 -1 1 0 0 Z " fill="#D7DBDE" transform="translate(145,102)"/>
<path d="M0 0 C0 1.65 0 3.3 0 5 C-5.28 5 -10.56 5 -16 5 C-16.33 3.68 -16.66 2.36 -17 1 C-11.29309366 0.00749455 -5.78591511 -0.10477512 0 0 Z " fill="#F4F6F7" transform="translate(130,206)"/>
<path d="M0 0 C0.33 0.99 0.66 1.98 1 3 C2.98 3 4.96 3 7 3 C7 4.65 7 6.3 7 8 C7.66 8 8.32 8 9 8 C9 6.35 9 4.7 9 3 C9.99 3 10.98 3 12 3 C12.33 2.34 12.66 1.68 13 1 C13 1.66 13 2.32 13 3 C13.99 3 14.98 3 16 3 C16.33 2.34 16.66 1.68 17 1 C17 1.66 17 2.32 17 3 C17.66 3.33 18.32 3.66 19 4 C18.34 4 17.68 4 17 4 C17 5.32 17 6.64 17 8 C17.66 8.33 18.32 8.66 19 9 C18.01 9 17.02 9 16 9 C16 7.35 16 5.7 16 4 C15.01 4 14.02 4 13 4 C13 5.32 13 6.64 13 8 C13.66 8.33 14.32 8.66 15 9 C11.04 9 7.08 9 3 9 C3 7.35 3 5.7 3 4 C2.34 4 1.68 4 1 4 C1 5.65 1 7.3 1 9 C0.67 9 0.34 9 0 9 C0 6.03 0 3.06 0 0 Z " fill="#747474" transform="translate(60,266)"/>
<path d="M0 0 C5.28 0 10.56 0 16 0 C16.33 0.99 16.66 1.98 17 3 C10.565 3.495 10.565 3.495 4 4 C3.34 6.31 2.68 8.62 2 11 C1.34 10.67 0.68 10.34 0 10 C0 6.7 0 3.4 0 0 Z " fill="#F9FCFE" transform="translate(130,49)"/>
<path d="M0 0 C1.1446875 0.2475 1.1446875 0.2475 2.3125 0.5 C5.03392445 1.00631153 6.40067115 0.74266539 9 0 C10 1 10 1 10.0625 4.0625 C10.041875 5.031875 10.02125 6.00125 10 7 C8.1875 7.625 8.1875 7.625 6 8 C5.01 7.34 4.02 6.68 3 6 C2.01 6.66 1.02 7.32 0 8 C-0.38063221 5.6739143 -0.71269945 3.33944736 -1 1 C-0.67 0.67 -0.34 0.34 0 0 Z " fill="#7D7D7D" transform="translate(197,267)"/>
<path d="M0 0 C2.01822917 0.06510417 4.03645833 0.13020833 6.0546875 0.1953125 C6.3846875 1.8453125 6.7146875 3.4953125 7.0546875 5.1953125 C3.64905898 5.97374188 0.54702994 6.29509371 -2.9453125 6.1953125 C-3.5703125 4.3203125 -3.5703125 4.3203125 -3.9453125 2.1953125 C-1.9453125 0.1953125 -1.9453125 0.1953125 0 0 Z " fill="#909090" transform="translate(121.9453125,268.8046875)"/>
<path d="M0 0 C0.99 0.33 1.98 0.66 3 1 C2.979375 2.093125 2.95875 3.18625 2.9375 4.3125 C2.81455548 7.94384191 2.81455548 7.94384191 4 11 C4.34820041 12.66362417 4.68404492 14.32995171 5 16 C4.34 16.33 3.68 16.66 3 17 C2.01 16.67 1.02 16.34 0 16 C-1.52634923 12.94730154 -0.83794444 10.24154311 -0.5625 6.875 C-0.46066406 5.59367188 -0.35882813 4.31234375 -0.25390625 2.9921875 C-0.12822266 1.51105469 -0.12822266 1.51105469 0 0 Z " fill="#D7DCE0" transform="translate(82,146)"/>
<path d="M0 0 C0 0.33 0 0.66 0 1 C-4.29 1 -8.58 1 -13 1 C-13 4.96 -13 8.92 -13 13 C-13.33 13 -13.66 13 -14 13 C-14 9.04 -14 5.08 -14 1 C-19.28 1 -24.56 1 -30 1 C-30 0.67 -30 0.34 -30 0 C-19.83562705 -0.85803148 -10.17617858 -1.03351814 0 0 Z " fill="#F1F1F1" transform="translate(225,211)"/>
<path d="M0 0 C4 4 4 4 4.390625 6.359375 C4.34421875 7.14828125 4.2978125 7.9371875 4.25 8.75 C4.21390625 9.54921875 4.1778125 10.3484375 4.140625 11.171875 C4.09421875 11.77515625 4.0478125 12.3784375 4 13 C2.68 13 1.36 13 0 13 C0 8.71 0 4.42 0 0 Z " fill="#D7DBDF" transform="translate(163,101)"/>
<path d="M0 0 C0 1.32 0 2.64 0 4 C-12.66970387 4.18451025 -12.66970387 4.18451025 -18 3 C-18 2.67 -18 2.34 -18 2 C-15.7505194 1.66317938 -13.50039296 1.33066999 -11.25 1 C-9.99703125 0.814375 -8.7440625 0.62875 -7.453125 0.4375 C-4 0 -4 0 0 0 Z " fill="#D4D9DF" transform="translate(110,175)"/>
<path d="M0 0 C3.125 0.375 3.125 0.375 6 1 C6 2.32 6 3.64 6 5 C6.66 5.33 7.32 5.66 8 6 C7.443125 5.814375 6.88625 5.62875 6.3125 5.4375 C3.600867 4.92448835 1.65628961 5.3359276 -1 6 C-1.625 4.125 -1.625 4.125 -2 2 C-1.34 1.34 -0.68 0.68 0 0 Z " fill="#878787" transform="translate(100,269)"/>
<path d="M0 0 C0.66 0 1.32 0 2 0 C1.9071875 1.1446875 1.9071875 1.1446875 1.8125 2.3125 C2.03533919 5.50652837 2.73319924 5.9220993 5 8 C5 8.99 5 9.98 5 11 C3.02 11 1.04 11 -1 11 C-0.67 7.37 -0.34 3.74 0 0 Z " fill="#DBDFE3" transform="translate(82,79)"/>
<path d="M0 0 C2.97 0 5.94 0 9 0 C8.01 0.495 8.01 0.495 7 1 C7 2.65 7 4.3 7 6 C6.34 6 5.68 6 5 6 C5 5.01 5 4.02 5 3 C3.68 3 2.36 3 1 3 C1 3.66 1 4.32 1 5 C1.99 5.33 2.98 5.66 4 6 C2.68 6 1.36 6 0 6 C-1.125 2.25 -1.125 2.25 0 0 Z " fill="#767676" transform="translate(80,269)"/>
<path d="M0 0 C0.66 0 1.32 0 2 0 C2 1.65 2 3.3 2 5 C2.66 5 3.32 5 4 5 C4 3.35 4 1.7 4 0 C4.99 0.33 5.98 0.66 7 1 C6.34 1 5.68 1 5 1 C5 1.66 5 2.32 5 3 C5.66 3.33 6.32 3.66 7 4 C6.34 4 5.68 4 5 4 C5 4.99 5 5.98 5 7 C6.32 6.34 7.64 5.68 9 5 C8.67 5.99 8.34 6.98 8 8 C6.68 8 5.36 8 4 8 C4 7.34 4 6.68 4 6 C3.34 6 2.68 6 2 6 C1.67 6.66 1.34 7.32 1 8 C1 7.34 1 6.68 1 6 C-0.32 5.67 -1.64 5.34 -3 5 C-1.68 5 -0.36 5 1 5 C0.67 3.35 0.34 1.7 0 0 Z " fill="#484848" transform="translate(180,267)"/>
<path d="M0 0 C4.42857143 5.14285714 4.42857143 5.14285714 5 9 C3.35 9 1.7 9 0 9 C-1.4606285 6.35261084 -2 5.10551666 -2 2 C-1.34 2 -0.68 2 0 2 C0 1.34 0 0.68 0 0 Z " fill="#EEF2F7" transform="translate(116,63)"/>
<path d="M0 0 C0.33 0 0.66 0 1 0 C1 3.3 1 6.6 1 10 C-0.65 10 -2.3 10 -4 10 C-4 8.68 -4 7.36 -4 6 C-3.34 6 -2.68 6 -2 6 C-1.855625 5.195625 -1.71125 4.39125 -1.5625 3.5625 C-1 1 -1 1 0 0 Z " fill="#D4D6D9" transform="translate(129,88)"/>
<path d="M0 0 C2.97 0.495 2.97 0.495 6 1 C5.42655063 3.86724686 5.1385485 4.8614515 3 7 C2.01 7 1.02 7 0 7 C0 4.69 0 2.38 0 0 Z " fill="#EDEDED" transform="translate(151,267)"/>
<path d="M0 0 C1.32 0.33 2.64 0.66 4 1 C4 2.98 4 4.96 4 7 C2.68 7.33 1.36 7.66 0 8 C0 5.36 0 2.72 0 0 Z " fill="#A5A5A5" transform="translate(203,267)"/>
<path d="M0 0 C0 2.64 0 5.28 0 8 C-1.65 8 -3.3 8 -5 8 C-4.6875 5.125 -4.6875 5.125 -4 2 C-1 0 -1 0 0 0 Z " fill="#E3E3E3" transform="translate(97,89)"/>
<path d="M0 0 C0.99 0.33 1.98 0.66 3 1 C2.67 3.31 2.34 5.62 2 8 C1.34 8 0.68 8 0 8 C0 5.36 0 2.72 0 0 Z M-1 8 C-0.67 8 -0.34 8 0 8 C0 9.98 0 11.96 0 14 C-0.33 14 -0.66 14 -1 14 C-1 12.02 -1 10.04 -1 8 Z " fill="#DFE2E6" transform="translate(82,146)"/>
<path d="M0 0 C0.33 0.66 0.66 1.32 1 2 C1.99 2 2.98 2 4 2 C4.33 1.34 4.66 0.68 5 0 C5 0.66 5 1.32 5 2 C5.66 2.33 6.32 2.66 7 3 C6.34 3 5.68 3 5 3 C5 4.32 5 5.64 5 7 C5.66 7.33 6.32 7.66 7 8 C6.01 8 5.02 8 4 8 C4 6.35 4 4.7 4 3 C3.01 3 2.02 3 1 3 C1 4.32 1 5.64 1 7 C1.66 7.33 2.32 7.66 3 8 C2.01 8 1.02 8 0 8 C0 5.36 0 2.72 0 0 Z " fill="#4B4B4B" transform="translate(72,267)"/>
<path d="M0 0 C2 0.25 2 0.25 4 1 C4.33 1.99 4.66 2.98 5 4 C3.35 4.33 1.7 4.66 0 5 C-0.5625 3.0625 -0.5625 3.0625 -1 1 C-0.67 0.67 -0.34 0.34 0 0 Z " fill="#B1B1B1" transform="translate(119,270)"/>
<path d="M0 0 C0.33 1.32 0.66 2.64 1 4 C-1.31 4.66 -3.62 5.32 -6 6 C-6.33 5.01 -6.66 4.02 -7 3 C-5.5459375 2.814375 -5.5459375 2.814375 -4.0625 2.625 C-2.5465625 2.315625 -2.5465625 2.315625 -1 2 C-0.67 1.34 -0.34 0.68 0 0 Z " fill="#434E62" transform="translate(136,99)"/>
<path d="M0 0 C0.33 0.66 0.66 1.32 1 2 C1.66 2 2.32 2 3 2 C3 2.99 3 3.98 3 5 C1.02 5 -0.96 5 -3 5 C-1.125 1.125 -1.125 1.125 0 0 Z " fill="#EFEFF0" transform="translate(163,66)"/>
<path d="M0 0 C0.99 0 1.98 0 3 0 C2.43628586 3.26954202 1.50037734 4.82575883 -1 7 C-1.66 6.34 -2.32 5.68 -3 5 C-1.6875 2.5 -1.6875 2.5 0 0 Z " fill="#E7E7E7" transform="translate(172,268)"/>
<path d="M0 0 C0.66 0.33 1.32 0.66 2 1 C1.67 2.65 1.34 4.3 1 6 C0.01 6.33 -0.98 6.66 -2 7 C-2 5.02 -2 3.04 -2 1 C-1.34 0.67 -0.68 0.34 0 0 Z " fill="#B9B9B9" transform="translate(187,267)"/>
<path d="M0 0 C0.33 0.99 0.66 1.98 1 3 C0.67 3.66 0.34 4.32 0 5 C0.66 5.33 1.32 5.66 2 6 C0.68 6 -0.64 6 -2 6 C-2.33 6.99 -2.66 7.98 -3 9 C-3 7.02 -3 5.04 -3 3 C-2.01 2.67 -1.02 2.34 0 2 C0 1.34 0 0.68 0 0 Z " fill="#E9EDF0" transform="translate(165,112)"/>
<path d="M0 0 C1.32 0 2.64 0 4 0 C4 1.65 4 3.3 4 5 C2.68 4.67 1.36 4.34 0 4 C0 2.68 0 1.36 0 0 Z " fill="#DCDCDC" transform="translate(106,270)"/>
<path d="M0 0 C2.31 0 4.62 0 7 0 C7 0.99 7 1.98 7 3 C4.69 2.67 2.38 2.34 0 2 C0 1.34 0 0.68 0 0 Z " fill="#4C5868" transform="translate(79,90)"/>
<path d="M0 0 C0.99 0.33 1.98 0.66 3 1 C3 2.66666667 3 4.33333333 3 6 C1.68 6 0.36 6 -1 6 C-1 2 -1 2 0 0 Z " fill="#7F7F7F" transform="translate(90,269)"/>
<path d="M0 0 C0.99 0 1.98 0 3 0 C2.67 2.64 2.34 5.28 2 8 C1.34 7.67 0.68 7.34 0 7 C0 4.69 0 2.38 0 0 Z " fill="#DEE2E5" transform="translate(146,81)"/>
</svg>
